<svg xmlns="http://www.w3.org/2000/svg" width="16" height="17" viewBox="0 0 16 17" fill="none">
<g clip-path="url(#clip0_2501_20987)">
<path d="M2 2.22656L14 14.2266" stroke="black" stroke-linecap="round" stroke-linejoin="round"/>
<path d="M7.05598 7.28418C6.80579 7.53419 6.66516 7.87335 6.66504 8.22704C6.66491 8.58074 6.8053 8.91999 7.05531 9.17018C7.30532 9.42037 7.64448 9.56099 7.99817 9.56112C8.35186 9.56124 8.69112 9.42086 8.94131 9.17085" stroke="black" stroke-linecap="round" stroke-linejoin="round"/>
<path d="M11.5715 11.7923C10.4842 12.5256 9.29483 12.8929 8.00016 12.8929C5.3335 12.8929 3.1115 11.3376 1.3335 8.22628C2.24616 6.62961 3.2755 5.44294 4.4215 4.66561M6.24216 3.80294C6.81377 3.63942 7.40563 3.5575 8.00016 3.55961C10.6668 3.55961 12.8888 5.11494 14.6668 8.22628C14.1482 9.13361 13.5922 9.90894 12.9982 10.5516L6.24216 3.80294Z" stroke="black" stroke-linecap="round" stroke-linejoin="round"/>
</g>
<defs>
<clipPath id="clip0_2501_20987">
<rect width="16" height="16" fill="white" transform="translate(0 0.226562)"/>
</clipPath>
</defs>
</svg>