<svg xmlns="http://www.w3.org/2000/svg" width="20" height="21" viewBox="0 0 20 21" fill="none">
<g clip-path="url(#clip0_2501_20995)">
<path d="M14.1665 9.89355H5.83317C4.9127 9.89355 4.1665 10.6397 4.1665 11.5602V16.5602C4.1665 17.4807 4.9127 18.2269 5.83317 18.2269H14.1665C15.087 18.2269 15.8332 17.4807 15.8332 16.5602V11.5602C15.8332 10.6397 15.087 9.89355 14.1665 9.89355Z" stroke="#8591AB" stroke-width="2" stroke-linecap="round" stroke-linejoin="round"/>
<path d="M9.99984 14.8932C10.4601 14.8932 10.8332 14.5201 10.8332 14.0599C10.8332 13.5997 10.4601 13.2266 9.99984 13.2266C9.5396 13.2266 9.1665 13.5997 9.1665 14.0599C9.1665 14.5201 9.5396 14.8932 9.99984 14.8932Z" stroke="#8591AB" stroke-width="2" stroke-linecap="round" stroke-linejoin="round"/>
<path d="M6.6665 9.89323V6.5599C6.6665 5.67584 7.01769 4.82799 7.64281 4.20287C8.26794 3.57775 9.11578 3.22656 9.99984 3.22656C10.8839 3.22656 11.7317 3.57775 12.3569 4.20287C12.982 4.82799 13.3332 5.67584 13.3332 6.5599V9.89323" stroke="#8591AB" stroke-width="2" stroke-linecap="round" stroke-linejoin="round"/>
</g>
<defs>
<clipPath id="clip0_2501_20995">
<rect width="20" height="20" fill="white" transform="translate(0 0.726562)"/>
</clipPath>
</defs>
</svg>