<svg xmlns="http://www.w3.org/2000/svg" width="20" height="21" viewBox="0 0 20 21" fill="none">
<g clip-path="url(#clip0_2501_16845)">
<path d="M9.99984 9.89323C11.8408 9.89323 13.3332 8.40085 13.3332 6.5599C13.3332 4.71895 11.8408 3.22656 9.99984 3.22656C8.15889 3.22656 6.6665 4.71895 6.6665 6.5599C6.6665 8.40085 8.15889 9.89323 9.99984 9.89323Z" stroke="#8591AB" stroke-width="2" stroke-linecap="round" stroke-linejoin="round"/>
<path d="M5 18.2266V16.5599C5 15.6758 5.35119 14.828 5.97631 14.2029C6.60143 13.5778 7.44928 13.2266 8.33333 13.2266H11.6667C12.5507 13.2266 13.3986 13.5778 14.0237 14.2029C14.6488 14.828 15 15.6758 15 16.5599V18.2266" stroke="#8591AB" stroke-width="2" stroke-linecap="round" stroke-linejoin="round"/>
</g>
<defs>
<clipPath id="clip0_2501_16845">
<rect width="20" height="20" fill="white" transform="translate(0 0.726562)"/>
</clipPath>
</defs>
</svg>