<svg xmlns="http://www.w3.org/2000/svg" width="20" height="20" viewBox="0 0 20 20" fill="none">
<g clip-path="url(#clip0_2064_48537)">
<path d="M7.49967 3.33325H4.16634C3.7061 3.33325 3.33301 3.70635 3.33301 4.16659V7.49992C3.33301 7.96016 3.7061 8.33325 4.16634 8.33325H7.49967C7.95991 8.33325 8.33301 7.96016 8.33301 7.49992V4.16659C8.33301 3.70635 7.95991 3.33325 7.49967 3.33325Z" stroke="#62708C" stroke-width="2" stroke-linecap="round" stroke-linejoin="round"/>
<path d="M15.8337 3.33325H12.5003C12.0401 3.33325 11.667 3.70635 11.667 4.16659V7.49992C11.667 7.96016 12.0401 8.33325 12.5003 8.33325H15.8337C16.2939 8.33325 16.667 7.96016 16.667 7.49992V4.16659C16.667 3.70635 16.2939 3.33325 15.8337 3.33325Z" stroke="#62708C" stroke-width="2" stroke-linecap="round" stroke-linejoin="round"/>
<path d="M7.49967 11.6667H4.16634C3.7061 11.6667 3.33301 12.0398 3.33301 12.5001V15.8334C3.33301 16.2937 3.7061 16.6667 4.16634 16.6667H7.49967C7.95991 16.6667 8.33301 16.2937 8.33301 15.8334V12.5001C8.33301 12.0398 7.95991 11.6667 7.49967 11.6667Z" stroke="#62708C" stroke-width="2" stroke-linecap="round" stroke-linejoin="round"/>
<path d="M15.8337 11.6667H12.5003C12.0401 11.6667 11.667 12.0398 11.667 12.5001V15.8334C11.667 16.2937 12.0401 16.6667 12.5003 16.6667H15.8337C16.2939 16.6667 16.667 16.2937 16.667 15.8334V12.5001C16.667 12.0398 16.2939 11.6667 15.8337 11.6667Z" stroke="#62708C" stroke-width="2" stroke-linecap="round" stroke-linejoin="round"/>
</g>
<defs>
<clipPath id="clip0_2064_48537">
<rect width="20" height="20" fill="white"/>
</clipPath>
</defs>
</svg>