<svg width="133" height="32" viewBox="0 0 133 32" fill="none" xmlns="http://www.w3.org/2000/svg">
<path d="M4.75266 18.3065H12.9993C16.6621 18.3065 19.6306 15.3548 19.6306 11.7126V0.373051L4.75266 18.3065Z" fill="#D1D1D1"/>
<path d="M3.5191 12.0509C2.3618 10.6534 2.10409 8.79312 2.71018 7.1915C-0.0959775 11.4815 -0.895351 17.188 1.62924 22.999C3.08004 26.3351 5.75257 29.0068 9.10517 30.4613C12.8038 32.0677 16.4594 32.343 19.7428 31.6264L3.5191 12.0509Z" fill="#E4E4E4"/>
<path d="M3.17125 20.2659C2.52698 20.9659 1.99486 23.2105 2.60333 24.8098C0.956862 22.2923 0 19.2907 0 16.0661C0 7.1919 7.23254 0 16.1569 0C17.35 0 18.5145 0.12813 19.6336 0.372526L3.17125 20.2659Z" fill="#F7F7F7"/>
<path d="M53.168 31.1055H30.368V0.408863H53.0344V5.18764H35.3074V13.4758H52.3304V18.0362H35.3074V26.2793H53.168V31.1031V31.1055Z" fill="#F7F7F7"/>
<path d="M73.2932 9.48765H77.7029V31.1061H73.3815L73.162 27.5991C72.4867 28.9136 71.4343 29.922 70.0098 30.6244C68.5828 31.3267 67.1368 31.6779 65.6669 31.6779C62.4026 31.7064 59.7277 30.7122 57.6422 28.6953C55.5543 26.6784 54.5115 23.8714 54.5115 20.2767C54.5115 16.6819 55.5781 14.0125 57.709 12.0099C59.8399 10.0073 62.5219 9.00598 65.7576 9.00598C67.3158 9.00598 68.7714 9.35715 70.1243 10.0595C71.4773 10.7618 72.4914 11.7109 73.1667 12.9092L73.298 9.48765H73.2932ZM61.0783 15.0779C59.7253 16.3782 59.05 18.1103 59.05 20.2743C59.05 22.4383 59.7253 24.1775 61.0783 25.4921C62.4313 26.8066 64.1064 27.4662 66.106 27.4662C67.3993 27.4662 68.5542 27.2028 69.5683 26.6761C70.5825 26.1493 71.3461 25.4636 71.8615 24.6141C72.3769 23.767 72.7587 22.8393 73.0092 21.8285C73.2598 20.82 73.2598 19.8045 73.0092 18.7818C72.7587 17.7592 72.3769 16.8243 71.8615 15.9748C71.3461 15.1278 70.5825 14.4396 69.5683 13.9129C68.5542 13.3861 67.3993 13.1228 66.106 13.1228C64.1064 13.1228 62.4313 13.7729 61.0783 15.0732V15.0779Z" fill="#F7F7F7"/>
<path d="M98.2253 9.4871V11.5918L87.2894 26.6755H98.3136V31.1055H80.3217V29.2642L91.5678 13.6086H81.0734V9.4871H98.2277H98.2253Z" fill="#F7F7F7"/>
<path d="M102.857 0.672851C103.797 0.205414 104.74 0.205414 105.68 0.672851C106.62 1.14029 107.09 1.9589 107.09 3.12868C107.09 4.29846 106.62 5.12419 105.68 5.60586C104.74 6.08754 103.797 6.08754 102.857 5.60586C101.917 5.12419 101.447 4.29846 101.447 3.12868C101.447 1.9589 101.917 1.14029 102.857 0.672851ZM101.974 9.39994V31.1061H106.515V9.39994H101.974Z" fill="#F7F7F7"/>
<path d="M129.514 12.2712C131.616 14.4209 132.666 17.1022 132.666 20.3173C132.666 23.5324 131.63 26.2445 129.557 28.3634C127.483 30.4823 124.758 31.5429 121.377 31.5429C117.996 31.5429 115.321 30.4823 113.264 28.3634C111.207 26.2445 110.176 23.5609 110.176 20.3173C110.176 17.0737 111.212 14.383 113.285 12.2498C115.359 10.1167 118.055 9.04895 121.377 9.04895C124.699 9.04895 127.412 10.1238 129.514 12.2712ZM116.55 15.2751C115.33 16.649 114.72 18.3313 114.72 20.3173C114.72 22.3033 115.323 23.9714 116.528 25.3167C117.733 26.6621 119.351 27.3336 121.379 27.3336C123.408 27.3336 125.033 26.6621 126.252 25.3167C127.471 23.9714 128.082 22.3057 128.082 20.3173C128.082 18.3289 127.45 16.6846 126.185 15.2965C124.921 13.9084 123.319 13.2132 121.379 13.2132C119.439 13.2132 117.771 13.9013 116.55 15.2751Z" fill="#F7F7F7"/>
</svg>
