<svg xmlns="http://www.w3.org/2000/svg" width="20" height="20" viewBox="0 0 20 20" fill="none">
  <path d="M6.97461 11.2609H11.4845C13.4875 11.2609 15.1109 9.64665 15.1109 7.65483V1.45361L6.97461 11.2609Z" fill="url(#paint0_linear_2053_43813)"/>
  <path d="M6.30022 7.84059C5.66733 7.0763 5.52639 6.05898 5.85785 5.18311C4.32325 7.52916 3.88609 10.6499 5.26671 13.8277C6.06011 15.6521 7.52163 17.1132 9.35506 17.9087C11.3777 18.7871 13.3769 18.9376 15.1724 18.5458L6.30022 7.84059Z" fill="url(#paint1_linear_2053_43813)"/>
  <path d="M6.10925 12.3328C5.75692 12.7156 5.46592 13.9431 5.79868 14.8177C4.89828 13.4409 4.375 11.7995 4.375 10.036C4.375 5.18302 8.33025 1.25 13.2107 1.25C13.8632 1.25 14.5 1.32007 15.112 1.45372L6.10925 12.3328Z" fill="url(#paint2_linear_2053_43813)"/>
  <defs>
    <linearGradient id="paint0_linear_2053_43813" x1="12.4605" y1="11.1298" x2="10.0545" y2="2.93978" gradientUnits="userSpaceOnUse">
      <stop stop-color="#FF9002"/>
      <stop offset="0.57" stop-color="#E93D00"/>
      <stop offset="1" stop-color="#960B08"/>
    </linearGradient>
    <linearGradient id="paint1_linear_2053_43813" x1="15.1724" y1="11.9669" x2="4.43547" y2="11.9669" gradientUnits="userSpaceOnUse">
      <stop stop-color="#FF9002"/>
      <stop offset="0.57" stop-color="#E93D00"/>
      <stop offset="1" stop-color="#960B08"/>
    </linearGradient>
    <linearGradient id="paint2_linear_2053_43813" x1="9.74349" y1="14.8177" x2="9.74349" y2="1.25" gradientUnits="userSpaceOnUse">
      <stop stop-color="#F4D65E"/>
      <stop offset="0.57" stop-color="#E5B32E"/>
      <stop offset="1" stop-color="#F6822B"/>
    </linearGradient>
  </defs>
</svg>