<svg width="133" height="32" viewBox="0 0 133 32" fill="none" xmlns="http://www.w3.org/2000/svg">
<path d="M4.75326 18.3058H12.9998C16.6626 18.3058 19.631 15.3541 19.631 11.7119V0.372559L4.75326 18.3058Z" fill="url(#paint0_linear_0_1)"/>
<path d="M3.5195 12.0512C2.36221 10.6537 2.10451 8.79342 2.71059 7.19181C-0.0955324 11.4817 -0.894896 17.1882 1.62966 22.9991C3.08045 26.3352 5.75295 29.0069 9.1055 30.4614C12.8041 32.0677 16.4596 32.343 19.743 31.6264L3.5195 12.0512Z" fill="url(#paint1_linear_0_1)"/>
<path d="M3.17121 20.2657C2.52694 20.9656 1.99483 23.2102 2.6033 24.8095C0.95685 22.292 0 19.2905 0 16.0659C0 7.19181 7.23245 0 16.1567 0C17.3498 0 18.5142 0.128129 19.6333 0.372522L3.17121 20.2657Z" fill="url(#paint2_linear_0_1)"/>
<path d="M53.1669 31.1055H30.3672V0.409222H53.0333V5.18794H35.3065V13.476H52.3294V18.0364H35.3065V26.2793H53.1669V31.1031V31.1055Z" fill="black"/>
<path d="M73.2942 9.48741H77.7039V31.1055H73.3825L73.163 27.5986C72.4877 28.9131 71.4354 29.9215 70.0109 30.6239C68.5839 31.3262 67.1379 31.6774 65.6681 31.6774C62.4038 31.7058 59.7289 30.7117 57.6434 28.6948C55.5555 26.678 54.5128 23.871 54.5128 20.2763C54.5128 16.6816 55.5794 14.0122 57.7102 12.0096C59.8411 10.007 62.5231 9.00574 65.7587 9.00574C67.3169 9.00574 68.7725 9.35691 70.1254 10.0592C71.4784 10.7616 72.4925 11.7107 73.1678 12.9089L73.299 9.48741H73.2942ZM61.0795 15.0776C59.7265 16.3779 59.0512 18.11 59.0512 20.2739C59.0512 22.4379 59.7265 24.1771 61.0795 25.4916C62.4324 26.8061 64.1075 27.4657 66.1071 27.4657C67.4004 27.4657 68.5553 27.2024 69.5694 26.6756C70.5835 26.1489 71.3471 25.4631 71.8625 24.6137C72.3779 23.7666 72.7597 22.8389 73.0103 21.8281C73.2608 20.8197 73.2608 19.8041 73.0103 18.7815C72.7597 17.7588 72.3779 16.824 71.8625 15.9745C71.3471 15.1274 70.5835 14.4393 69.5694 13.9126C68.5553 13.3858 67.4004 13.1225 66.1071 13.1225C64.1075 13.1225 62.4324 13.7726 61.0795 15.0729V15.0776Z" fill="black"/>
<path d="M98.2226 9.48735V11.592L87.2868 26.6755H98.3109V31.1055H80.3192V29.2642L91.5652 13.6088H81.0709V9.48735H98.225H98.2226Z" fill="black"/>
<path d="M102.854 0.672637C103.794 0.205205 104.737 0.205205 105.677 0.672637C106.617 1.14007 107.087 1.95867 107.087 3.12843C107.087 4.2982 106.617 5.12392 105.677 5.60558C104.737 6.08725 103.794 6.08725 102.854 5.60558C101.914 5.12392 101.444 4.2982 101.444 3.12843C101.444 1.95867 101.914 1.14007 102.854 0.672637ZM101.971 9.39961V31.1055H106.512V9.39961H101.971Z" fill="black"/>
<path d="M129.515 12.2706C131.617 14.4203 132.667 17.1015 132.667 20.3166C132.667 23.5316 131.631 26.2437 129.558 28.3626C127.484 30.4814 124.759 31.5421 121.378 31.5421C117.997 31.5421 115.322 30.4814 113.265 28.3626C111.208 26.2437 110.177 23.5601 110.177 20.3166C110.177 17.073 111.213 14.3823 113.286 12.2492C115.36 10.1161 118.056 9.04838 121.378 9.04838C124.699 9.04838 127.412 10.1232 129.515 12.2706ZM116.551 15.2745C115.331 16.6483 114.72 18.3306 114.72 20.3166C114.72 22.3026 115.324 23.9706 116.529 25.316C117.734 26.6613 119.352 27.3328 121.38 27.3328C123.408 27.3328 125.033 26.6613 126.253 25.316C127.472 23.9706 128.083 22.3049 128.083 20.3166C128.083 18.3282 127.451 16.6839 126.186 15.2958C124.921 13.9078 123.32 13.2126 121.38 13.2126C119.44 13.2126 117.772 13.9007 116.551 15.2745Z" fill="black"/>
<defs>
<linearGradient id="paint0_linear_0_1" x1="14.7847" y1="18.0662" x2="10.3851" y2="3.09012" gradientUnits="userSpaceOnUse">
<stop stop-color="#FF9002"/>
<stop offset="0.57" stop-color="#E93D00"/>
<stop offset="1" stop-color="#960B08"/>
</linearGradient>
<linearGradient id="paint1_linear_0_1" x1="19.743" y1="19.5965" x2="0.109677" y2="19.5965" gradientUnits="userSpaceOnUse">
<stop stop-color="#FF9002"/>
<stop offset="0.57" stop-color="#E93D00"/>
<stop offset="1" stop-color="#960B08"/>
</linearGradient>
<linearGradient id="paint2_linear_0_1" x1="9.81666" y1="24.8095" x2="9.81666" y2="0" gradientUnits="userSpaceOnUse">
<stop stop-color="#F4D65E"/>
<stop offset="0.57" stop-color="#E5B32E"/>
<stop offset="1" stop-color="#F6822B"/>
</linearGradient>
</defs>
</svg>
