<svg xmlns="http://www.w3.org/2000/svg" width="42" height="54" viewBox="0 0 42 54" fill="none">
<mask id="mask0_1_2" style="mask-type:luminance" maskUnits="userSpaceOnUse" x="0" y="0" width="42" height="54">
<path d="M42 0H0V53.7175H42V0Z" fill="white"/>
</mask>
<g mask="url(#mask0_1_2)">
<path d="M23.2562 38.6904C24.6204 39.3026 24.8549 41.1407 23.6881 42.0757L14.6173 49.3448C13.3985 50.3216 11.5804 49.5867 11.3827 48.0372L9.84828 36.0091C9.65062 34.4597 11.2259 33.2919 12.651 33.9314L23.2562 38.6904Z" fill="#064274"/>
<path d="M21 42C32.598 42 42 32.598 42 21C42 9.40202 32.598 0 21 0C9.40202 0 0 9.40202 0 21C0 32.598 9.40202 42 21 42Z" fill="#064274"/>
<path d="M19.0898 19C19.3249 18.3317 19.789 17.7681 20.3998 17.4092C21.0106 17.0502 21.7287 16.919 22.427 17.0387C23.1253 17.1585 23.7587 17.5215 24.2149 18.0635C24.6712 18.6056 24.9209 19.2915 24.9198 20C24.9198 22 21.9198 23 21.9198 23" stroke="#EFF7FF" stroke-width="2.5" stroke-linecap="round" stroke-linejoin="round"/>
<path d="M22 27H22.01" stroke="#EFF7FF" stroke-width="2.5" stroke-linecap="round" stroke-linejoin="round"/>
</g>
</svg>