<svg width="673" height="704" viewBox="0 0 673 704" fill="none" xmlns="http://www.w3.org/2000/svg">
<g style="mix-blend-mode:multiply" opacity="0.1">
<path d="M307.406 521.549C289.828 521.549 275.578 507.333 275.578 489.798C275.578 472.262 289.828 458.046 307.406 458.046C324.984 458.046 339.234 472.262 339.234 489.798C339.234 507.333 324.984 521.549 307.406 521.549Z" fill="#FCD5AC"/>
<path d="M295.821 470.96C295.746 472.485 296.159 473.995 297.002 475.27C297.859 476.58 299.056 477.635 300.465 478.321C301.915 479.05 303.591 479.189 305.141 478.708C306.616 478.252 307.879 477.284 308.701 475.98C307.564 476.794 306.26 477.346 304.882 477.594C304.235 477.715 303.572 477.715 302.925 477.594C302.28 477.501 301.656 477.299 301.08 476.997C300.772 476.852 300.481 476.69 300.19 476.529C299.899 476.368 299.607 476.158 299.349 475.948C298.812 475.536 298.318 475.071 297.876 474.56C296.969 473.501 296.271 472.279 295.821 470.96Z" fill="#B0B8C9"/>
<path d="M307.276 472.784C307.413 471.726 307.179 470.654 306.613 469.749C306.035 468.813 305.205 468.058 304.218 467.57C303.182 467.057 301.985 466.97 300.885 467.328C299.862 467.679 299.011 468.407 298.506 469.362C299.312 468.865 300.209 468.53 301.144 468.377C301.989 468.284 302.842 468.435 303.603 468.813C305.275 469.642 306.582 471.055 307.276 472.784Z" fill="#B0B8C9"/>
<path d="M307.406 504.713C307.015 505.682 306.986 506.759 307.325 507.748C307.671 508.767 308.313 509.66 309.17 510.314C309.609 510.657 310.114 510.908 310.654 511.052C311.193 511.197 311.756 511.231 312.309 511.154C313.349 511.017 314.3 510.499 314.979 509.701C314.103 509.99 313.181 510.116 312.26 510.072C311.442 510.015 310.659 509.718 310.011 509.217C309.35 508.695 308.8 508.047 308.393 507.312C307.912 506.511 307.577 505.631 307.406 504.713Z" fill="#B0B8C9"/>
<path d="M314.007 508.329C314.182 508.005 314.29 507.65 314.326 507.284C314.363 506.919 314.326 506.549 314.217 506.198C314.005 505.457 313.556 504.806 312.939 504.342C312.62 504.092 312.253 503.911 311.86 503.811C311.467 503.711 311.058 503.694 310.658 503.76C310.294 503.827 309.948 503.965 309.639 504.167C309.331 504.37 309.066 504.632 308.862 504.939C309.474 504.818 310.102 504.791 310.722 504.858C311.226 504.922 311.701 505.123 312.098 505.439C313.031 506.171 313.701 507.185 314.007 508.329Z" fill="#B0B8C9"/>
<path d="M318.878 476.157C318.598 476.418 318.373 476.733 318.217 477.082C318.062 477.432 317.978 477.809 317.972 478.191C317.967 478.607 318.044 479.019 318.199 479.404C318.355 479.789 318.586 480.14 318.878 480.435C319.178 480.739 319.545 480.969 319.949 481.107C320.354 481.244 320.785 481.285 321.208 481.226C321.969 481.155 322.68 480.817 323.215 480.274C322.549 480.292 321.883 480.249 321.225 480.145C320.712 480.063 320.238 479.826 319.865 479.467C319.483 479.079 319.205 478.602 319.056 478.078C318.893 477.452 318.832 476.803 318.878 476.157Z" fill="#B0B8C9"/>
<path d="M322.826 479.241C323.058 479.083 323.249 478.874 323.387 478.631C323.524 478.387 323.604 478.115 323.619 477.836C323.631 477.538 323.582 477.241 323.473 476.963C323.364 476.686 323.199 476.433 322.988 476.222C322.766 475.997 322.493 475.829 322.191 475.733C321.889 475.638 321.569 475.617 321.257 475.673C320.984 475.711 320.721 475.803 320.485 475.944C320.248 476.086 320.043 476.274 319.882 476.497C320.335 476.55 320.784 476.636 321.225 476.755C321.521 476.829 321.79 476.986 322.001 477.207C322.235 477.435 322.417 477.71 322.535 478.014C322.688 478.408 322.786 478.82 322.826 479.241Z" fill="#B0B8C9"/>
<path d="M296.759 509.62C296.944 509.957 297.195 510.252 297.499 510.488C297.802 510.724 298.151 510.896 298.523 510.992C298.922 511.113 299.342 511.151 299.757 511.104C300.171 511.056 300.572 510.925 300.934 510.718C301.303 510.503 301.617 510.206 301.853 509.851C302.089 509.495 302.239 509.091 302.293 508.668C302.393 507.911 302.234 507.143 301.84 506.489C301.706 507.139 301.5 507.772 301.225 508.377C301.033 508.858 300.686 509.262 300.238 509.523C299.774 509.805 299.244 509.961 298.701 509.975C298.038 509.969 297.381 509.848 296.759 509.62Z" fill="#B0B8C9"/>
<path d="M300.723 506.569C300.628 506.306 300.473 506.069 300.271 505.876C300.069 505.682 299.825 505.538 299.558 505.455C299.264 505.359 298.954 505.327 298.647 505.36C298.34 505.394 298.043 505.492 297.778 505.649C297.495 505.817 297.258 506.052 297.088 506.334C296.919 506.616 296.822 506.935 296.807 507.263C296.779 507.537 296.806 507.814 296.886 508.077C296.967 508.34 297.099 508.585 297.276 508.797C297.449 508.373 297.644 507.958 297.859 507.554C298.008 507.286 298.226 507.064 298.49 506.908C298.771 506.75 299.078 506.641 299.396 506.585C299.835 506.518 300.282 506.512 300.723 506.569Z" fill="#B0B8C9"/>
<path d="M285.853 487.28C285.789 488.051 286.033 488.817 286.532 489.41C287.087 490.037 287.865 490.425 288.701 490.492C289.128 490.516 289.556 490.442 289.951 490.277C290.346 490.112 290.699 489.86 290.982 489.539C291.493 488.973 291.795 488.25 291.84 487.489C291.344 487.947 290.802 488.353 290.222 488.7C289.785 488.985 289.27 489.126 288.749 489.104C288.208 489.067 287.685 488.894 287.228 488.603C286.702 488.238 286.237 487.791 285.853 487.28Z" fill="#B0B8C9"/>
<path d="M290.853 486.973C290.931 486.696 290.941 486.405 290.882 486.124C290.823 485.843 290.696 485.58 290.513 485.359C290.32 485.111 290.075 484.909 289.796 484.767C289.516 484.625 289.208 484.545 288.895 484.535C288.585 484.523 288.277 484.583 287.996 484.712C287.715 484.842 287.468 485.035 287.277 485.278C287.1 485.486 286.967 485.728 286.886 485.989C286.805 486.249 286.779 486.524 286.807 486.795C287.181 486.531 287.576 486.299 287.989 486.101C288.257 485.961 288.56 485.9 288.862 485.924C289.188 485.939 289.508 486.022 289.801 486.166C290.184 486.389 290.537 486.661 290.853 486.973Z" fill="#B0B8C9"/>
<path d="M328.021 494.479C327.986 494.859 328.028 495.242 328.145 495.605C328.262 495.968 328.451 496.304 328.7 496.593C328.97 496.91 329.301 497.169 329.674 497.355C330.046 497.541 330.453 497.65 330.869 497.675C331.297 497.702 331.726 497.631 332.121 497.465C332.517 497.3 332.869 497.046 333.15 496.722C333.657 496.16 333.959 495.443 334.008 494.689C333.508 495.143 332.967 495.548 332.39 495.899C331.952 496.181 331.437 496.316 330.917 496.287C330.378 496.254 329.855 496.088 329.396 495.802C328.87 495.438 328.405 494.991 328.021 494.479Z" fill="#B0B8C9"/>
<path d="M333.02 494.156C333.096 493.879 333.104 493.589 333.045 493.308C332.986 493.027 332.861 492.765 332.68 492.542C332.485 492.298 332.239 492.098 331.96 491.956C331.681 491.814 331.375 491.733 331.062 491.719C330.754 491.705 330.448 491.764 330.167 491.89C329.886 492.016 329.638 492.206 329.444 492.445C329.268 492.654 329.137 492.896 329.056 493.157C328.975 493.417 328.948 493.691 328.975 493.962C329.352 493.709 329.747 493.483 330.156 493.284C330.423 493.139 330.726 493.072 331.03 493.091C331.35 493.112 331.663 493.194 331.952 493.333C332.345 493.556 332.704 493.833 333.02 494.156Z" fill="#B0B8C9"/>
<g opacity="0.4">
<path d="M662.708 371.767C662.76 384.021 660.413 396.166 655.799 407.522C651.123 418.708 643.728 428.62 634.149 434.85C631.813 436.395 629.343 437.729 626.77 438.837C624.241 439.879 621.619 440.679 618.939 441.226C613.715 442.301 608.334 442.378 603.081 441.452C592.661 439.661 583.049 434.511 574.538 427.732C574.02 427.296 573.438 426.86 572.92 426.456L571.722 425.31C570.946 424.503 570.104 423.696 569.425 422.841C567.872 421.076 566.459 419.192 565.202 417.207C562.448 412.915 560.093 408.382 558.163 403.664C553.964 393.254 550.519 382.557 547.856 371.654C542.079 349.056 537.483 325.117 532.014 300.807C530.655 294.716 529.204 288.604 527.662 282.47C526.173 276.32 524.522 270.154 522.807 263.939C519.32 251.013 514.841 238.375 509.409 226.135C507.921 222.906 506.287 219.678 504.345 216.336C503.39 214.722 502.306 212.995 501.109 211.349C499.911 209.702 498.746 208.12 497.468 206.684C492.573 201.003 486.903 196.037 480.623 191.93C468.747 183.972 456.546 179.016 444.831 173.98C433.116 168.944 421.563 164.295 410.641 158.726C399.828 153.314 389.661 146.702 380.334 139.016C371.309 131.473 363.614 122.476 357.567 112.398C351.612 102.406 347.276 91.5106 346.03 80.9053C345.35 75.8486 345.421 70.7195 346.24 65.6834C347.02 61.1807 348.669 56.8717 351.095 52.9958C353.266 49.5698 356.123 46.6275 359.486 44.3528C362.85 42.0781 366.647 40.5199 370.641 39.7755C374.718 38.9811 378.893 38.8177 383.02 39.2913C387.45 39.8385 391.797 40.9227 395.964 42.5197C397.049 42.9232 398.117 43.3752 399.201 43.8272L403.019 45.4414C405.544 46.5713 408.052 47.7497 410.495 49.0087C415.349 51.5107 420.204 54.2064 424.912 57.225C434.346 63.1814 443.617 70.3968 453.941 78.2096C464.766 86.5189 476.188 94.0237 488.115 100.663C500.549 107.29 513.591 112.712 527.063 116.853C528.681 117.402 530.396 117.838 532.063 118.322L536.545 119.598C539.021 120.324 541.529 121.115 544.021 121.97C548.988 123.714 553.907 125.699 558.697 127.911C577.839 136.821 594.57 149.315 606.479 165.554C612.639 173.834 617.733 182.852 621.641 192.398C623.743 197.39 625.522 202.512 626.964 207.733C628.516 213.14 629.78 218.625 630.751 224.165C631.722 229.799 632.482 235.578 632.951 241.453C633.194 244.214 633.372 247.813 633.599 251.139C633.825 254.464 634.165 257.773 634.553 261.066C636.1 274.087 638.56 286.984 641.916 299.661C645.152 312.204 649.165 324.342 653.242 336.271C655.297 342.244 657.352 348.168 659.181 354.027C661.15 359.756 662.336 365.723 662.708 371.767ZM667.563 371.767C667.545 368.466 667.21 365.174 666.559 361.937C665.993 358.709 665.249 355.658 664.521 352.591C663.064 346.441 661.495 340.371 660.2 334.27C658.906 328.168 657.757 322.082 656.964 315.965C656.171 309.847 655.653 303.713 655.346 297.595C654.908 285.468 655.688 273.328 657.676 261.356C658.129 258.386 658.712 255.448 659.294 252.527C659.877 249.605 660.572 246.893 661.252 243.423C662.635 236.736 663.645 229.979 664.278 223.181C665.651 209.052 664.992 194.799 662.32 180.856C659.477 166.283 654.157 152.302 646.592 139.517C638.841 126.693 629.141 115.149 617.838 105.296C606.758 95.6163 594.419 87.4719 581.156 81.0828C574.63 77.8919 567.907 75.1206 561.027 72.7858C557.596 71.5752 554.101 70.526 550.542 69.5575L541.901 67.2491C531.292 64.3625 520.947 60.5824 510.979 55.9498C500.636 51.0259 490.65 45.3895 481.093 39.0814C470.818 32.6246 459.701 25.0863 447.371 18.5488C441.186 15.2294 434.829 12.239 428.326 9.59003C425.09 8.25025 421.854 7.0396 418.456 5.87738L413.472 4.26318C411.579 3.69821 409.67 3.14939 407.744 2.64899C399.85 0.647785 391.711 -0.227201 383.57 0.0501293C375.118 0.317531 366.779 2.05466 358.926 5.18328C350.911 8.39971 343.629 13.1984 337.519 19.2914C331.484 25.3008 326.806 32.5268 323.797 40.4858C320.97 48.0123 319.582 56.0004 319.703 64.0369C319.788 71.5226 320.965 78.956 323.199 86.103C327.528 99.2893 334.126 111.623 342.697 122.552C346.765 127.882 351.193 132.93 355.949 137.66C360.679 142.306 365.676 146.672 370.916 150.735C391.774 166.877 415.463 177.596 436.87 190.073C447.549 196.24 457.727 202.987 465.446 210.767C469.063 214.398 472.136 218.53 474.572 223.035C475.122 224.111 475.624 225.188 476.077 226.264C476.513 227.313 476.918 228.378 477.323 229.492C478.115 231.817 478.844 234.335 479.507 237.014C480.818 242.325 481.837 248.055 482.743 253.899C483.649 259.742 484.458 265.731 485.284 271.768L487.678 290.073C488.487 296.223 489.296 302.422 490.267 308.652C494.086 333.511 498.94 358.87 508.066 384.116C512.662 397.238 518.8 409.771 526.351 421.453C528.406 424.455 530.542 427.425 532.92 430.331C535.303 433.307 537.888 436.116 540.655 438.741C543.507 441.487 546.569 444.007 549.813 446.279C551.469 447.446 553.187 448.524 554.959 449.507L557.677 450.96C558.551 451.412 559.295 451.735 560.153 452.122C566.722 455.165 573.601 457.492 580.671 459.063C587.863 460.649 595.248 461.193 602.596 460.677C609.903 460.158 617.064 458.377 623.761 455.415C627.031 453.966 630.162 452.221 633.113 450.201C635.986 448.242 638.692 446.05 641.204 443.648C650.706 434.202 657.716 422.556 661.608 409.75C665.441 397.491 667.447 384.737 667.563 371.897L667.563 371.767Z" fill="#FCD5AC"/>
<path d="M458.989 425.762C452.294 413.02 447.316 399.451 444.184 385.407C440.802 371.412 438.65 357.127 436.546 342.68C435.43 335.464 434.426 328.152 433.1 320.84C431.86 313.319 430.185 305.875 428.084 298.548C425.853 290.649 422.646 283.057 418.537 275.949C413.782 267.844 407.255 260.914 399.443 255.674C397.356 254.302 395.107 253.156 392.971 251.929C390.835 250.703 388.343 249.928 385.981 249.008C383.618 248.088 381.126 247.555 378.764 246.942C376.401 246.328 373.91 246.054 371.499 245.65C362.204 244.418 352.78 244.543 343.522 246.022C334.442 247.465 325.573 250.013 317.114 253.608C309.191 257.025 301.565 261.09 294.315 265.763C281.151 274.461 268.637 284.102 256.872 294.609L240.303 309.137C237.601 311.51 234.866 313.769 232.213 316.045L228.184 319.419L224.154 322.647C218.919 326.83 213.475 330.747 207.844 334.383C202.522 337.853 196.914 340.867 191.08 343.39C184.88 345.915 178.469 347.892 171.922 349.298C165.094 350.912 157.974 352.107 150.677 353.172C136.114 355.319 120.904 356.675 105.515 358.45L93.9459 359.887C90.0463 360.452 86.179 361.033 82.2633 361.743C74.3167 363.07 66.4838 365.002 58.8332 367.522C50.8291 370.103 43.2905 373.945 36.5034 378.902C29.6425 384.036 24.0427 390.66 20.1282 398.273C18.2582 401.949 16.7516 405.798 15.6299 409.766L14.1737 415.625C13.7691 417.562 13.5102 419.435 13.1704 421.356C12.0292 429.032 11.5905 436.796 11.8598 444.552C12.2501 452.36 13.3989 460.112 15.2901 467.699C15.8079 469.588 16.1963 471.525 16.8111 473.381L18.6234 478.982C20.015 482.647 21.4228 486.327 23.0894 489.878C29.7671 504.195 38.5414 517.442 49.1246 529.184C54.3346 535.111 59.8889 540.727 65.7587 546.004C71.5515 551.379 77.7326 556.27 84.0108 561.032C87.247 563.324 90.3538 565.729 93.6385 567.892L98.4929 571.218L103.46 574.446C110.138 578.621 116.955 582.549 123.913 586.23C127.392 588.054 130.903 589.813 134.415 591.589C137.926 593.364 141.518 594.946 145.094 596.544C148.67 598.143 152.262 599.773 155.903 601.209C159.544 602.646 163.152 604.18 166.841 605.519L187.877 613.364C191.307 614.64 194.673 616.012 198.055 617.335L203.135 619.337L208.168 621.419C234.87 632.425 260.873 645.05 286.031 659.224C298.668 666.342 311.192 673.751 324.784 681.241C331.564 685.035 338.748 688.715 346.612 692.218C354.944 695.963 363.613 698.914 372.502 701.031C382.044 703.252 391.833 704.234 401.628 703.953C410.943 703.668 420.202 702.396 429.249 700.16C433.65 699.207 437.744 697.932 441.902 696.721C443.957 696.076 445.931 695.366 447.938 694.704C449.944 694.042 451.918 693.364 453.989 692.508L460.106 690.055L463.148 688.796L466.174 687.327C470.266 685.433 474.248 683.31 478.099 680.967C480.041 679.772 481.982 678.61 483.908 677.367L489.507 673.251L492.257 671.169C493.18 670.458 494.021 669.635 494.911 668.86L500.089 664.147C501.707 662.533 503.325 660.66 504.846 658.933L507.176 656.286C507.921 655.382 508.584 654.413 509.296 653.461C510.671 651.556 512.063 649.668 513.39 647.747C514.717 645.826 515.736 643.711 516.869 641.677C521.13 633.709 524.158 625.143 525.849 616.27L526.513 613.042C526.691 611.96 526.804 610.895 526.933 609.813C527.192 607.682 527.467 605.552 527.645 603.356C527.882 599.19 527.909 595.015 527.726 590.846C527.36 582.819 526.31 574.838 524.587 566.988C522.895 559.439 520.778 551.991 518.244 544.68C513.249 530.517 507.375 516.678 500.655 503.244C499.037 499.935 497.419 496.577 495.672 493.317C493.924 490.056 492.435 486.731 490.607 483.486C488.778 480.242 487.144 477.029 485.397 473.801L480.17 464.116L458.989 425.762ZM454.685 427.958C461.611 440.742 468.051 453.785 473.779 467.102L475.915 472.09L477.921 477.126C479.296 480.468 480.51 483.873 481.74 487.263C484.248 494.027 486.416 500.903 488.422 507.796C492.42 521.407 495.172 535.351 496.642 549.458C497.357 556.284 497.665 563.145 497.565 570.007C497.42 576.572 496.744 583.115 495.542 589.571C495.105 592.799 494.118 595.721 493.406 598.724L491.934 603.033C491.675 603.744 491.465 604.454 491.206 605.148L490.283 607.182C488.09 612.403 485.176 617.293 481.626 621.71C480.737 622.775 479.847 623.808 479.021 624.938L476.109 627.844C475.623 628.328 475.17 628.844 474.669 629.296L473.051 630.604C471.966 631.459 470.963 632.38 469.814 633.219L466.335 635.608C465.753 636.012 465.219 636.447 464.604 636.802L462.711 637.884L458.973 640.063L454.944 641.984C449.36 644.625 443.59 646.853 437.679 648.651C436.223 649.167 434.588 649.603 432.97 650.039C431.352 650.475 429.734 650.959 428.116 651.346C424.961 652.041 421.789 652.88 418.747 653.348C413.013 654.468 407.18 655.009 401.336 654.962C395.996 654.882 390.684 654.172 385.511 652.848C375.042 650.184 363.36 644.502 350.69 637.739C344.363 634.397 337.907 630.846 331.273 627.246C324.638 623.647 317.859 620.144 311.046 616.625C283.399 602.561 254.789 590.462 225.433 580.419L220.028 578.514L214.511 576.706C210.837 575.511 207.164 574.269 203.475 573.139L181.874 566.569C174.997 564.454 168.184 562.21 161.405 559.902L151.324 556.27C147.991 554.995 144.657 553.736 141.34 552.428C134.787 549.717 128.169 547.053 121.793 544.018L116.939 541.791L112.198 539.45C108.962 537.933 105.968 536.222 102.845 534.608C90.5967 527.983 79.0216 520.187 68.2829 511.331C63.0413 506.93 58.1155 502.167 53.542 497.078C48.9894 492.092 44.9206 486.687 41.3901 480.936C34.2437 469.522 29.718 456.673 28.1378 443.309C27.4341 436.583 27.4667 429.801 28.2349 423.083C28.4776 421.469 28.6395 419.693 28.9307 418.047L29.9339 413.204C30.7714 410.124 31.8983 407.13 33.2996 404.261C36.0903 398.585 40.2489 393.687 45.4029 390.008C50.9056 386.2 57.0415 383.397 63.5257 381.727C70.4185 379.926 77.4578 378.737 84.561 378.176C91.7777 377.579 99.1239 377.369 106.567 377.433C121.421 377.514 136.567 378.434 152.181 378.757C160.013 378.87 167.974 378.757 176.162 378.273C184.657 377.797 193.097 376.598 201.388 374.689C219.041 370.379 234.251 362.486 248.021 353.705C275.367 336.045 296.904 314.964 318.781 299.451C329.671 291.719 340.447 285.553 351.547 282.163C357.128 280.456 362.901 279.459 368.732 279.193C374.029 278.725 379.362 279.503 384.303 281.466C389.243 283.428 393.653 286.52 397.178 290.493C401.575 295.245 405.343 300.539 408.391 306.247C411.698 312.353 414.654 318.643 417.242 325.085C419.847 331.719 422.323 338.515 424.572 345.392C429.2 359.144 433.261 373.204 437.905 387.102C442.308 401.173 447.911 414.842 454.653 427.958L454.685 427.958Z" fill="#FCD5AC"/>
<path d="M8.5102 97.2896C10.5435 101.636 12.8737 105.837 15.4842 109.864C16.6816 111.801 17.9437 113.625 19.2058 115.465C20.468 117.306 21.7948 119.033 23.1216 120.728C25.743 124.182 28.4937 127.362 31.2121 130.542C42.3123 143.052 54.3995 153.787 66.244 164.44L70.4349 168.234L72.2795 169.848L74.0756 171.736C75.2892 172.947 76.3571 174.335 77.4898 175.659C78.6225 176.983 79.6257 178.5 80.726 179.985C81.8263 181.47 82.7648 182.987 83.7033 184.602C84.6418 186.216 85.5965 187.83 86.4864 189.444C88.2178 192.673 89.9815 196.175 91.5187 199.694C97.9911 213.802 102.845 228.96 110.305 244.149C114.212 252.232 119.385 259.642 125.628 266.102C129.044 269.52 132.845 272.531 136.955 275.077C139.048 276.356 141.208 277.519 143.427 278.564C144.544 279.08 145.66 279.629 146.793 280.081L150.223 281.357C154.784 282.93 159.472 284.107 164.236 284.875C166.631 285.311 169.22 285.44 171.76 285.666C174.301 285.892 176.776 285.666 179.317 285.666C181.857 285.666 184.171 285.231 186.744 284.956C187.956 284.812 189.161 284.607 190.352 284.343L193.944 283.616L195.741 283.229L197.472 282.729L200.935 281.696C203.224 281.04 205.472 280.248 207.666 279.323C216.251 275.901 224.368 271.41 231.824 265.957C239.01 260.642 245.64 254.617 251.614 247.975C257.436 241.391 262.576 234.236 266.953 226.619C268.037 224.714 269.073 222.793 270.092 220.889C271.112 218.984 271.969 216.934 272.892 214.965C273.814 212.995 274.655 210.994 275.432 208.96C276.209 206.926 277.05 204.94 277.697 202.842C280.485 194.659 282.607 186.265 284.04 177.741C285.495 169.369 286.275 160.895 286.37 152.398C286.53 144.098 285.901 135.802 284.493 127.62C283.101 119.541 280.528 111.709 276.856 104.376C272.976 96.9411 267.441 90.4916 260.675 85.5221C253.783 80.5985 246.249 76.6393 238.28 73.7546C222.372 68.0136 205.917 63.9137 189.171 61.519C180.903 60.2599 172.683 59.4205 164.544 58.904C163.754 58.8686 162.969 58.766 162.197 58.5973L160.304 58.2583C159.01 57.8709 157.78 57.7579 156.502 57.306L154.625 56.7733C153.994 56.5473 153.362 56.289 152.731 56.1114C151.469 55.7725 150.142 55.1106 148.864 54.7071C143.026 52.3328 137.341 49.5996 131.842 46.5231L122.246 41.1478L117.117 38.2584L111.616 35.369C107.959 33.3674 103.865 31.4465 99.6577 29.5418C95.089 27.551 90.3978 25.8526 85.6126 24.457C80.2156 22.8806 74.6674 21.8742 69.0595 21.4546C62.9376 20.9872 56.7804 21.3565 50.7588 22.5523L48.4611 22.9881L46.2281 23.5854C44.7556 24.0051 43.2508 24.4086 41.7783 24.8767C38.9529 25.8682 36.1915 27.0326 33.5098 28.3634L29.6102 30.3811L26.0342 32.5926C23.7226 34.0882 21.4919 35.7046 19.3515 37.4352C18.7851 37.8549 18.3482 38.1777 17.7334 38.7104C17.1185 39.2431 16.1153 40.1309 15.29 40.8734C13.6084 42.3854 12.0651 44.0438 10.6784 45.829C10.3386 46.2648 9.96649 46.7168 9.62668 47.1849L8.63962 48.6861C8.00855 49.7031 7.40988 50.7039 6.81119 51.737C5.7396 53.8182 4.8255 55.9765 4.0766 58.1938C3.75299 59.2914 3.4617 60.3729 3.18662 61.4222C3.04099 61.971 2.91159 62.536 2.81449 63.0364L2.55561 64.6506C2.40998 65.6836 2.29667 66.7329 2.18341 67.7821C2.07013 68.8313 2.10248 69.7353 2.07013 70.7199C2.03779 71.7046 2.07013 72.6731 2.07013 73.6094L2.2967 76.2566C2.39377 77.1122 2.4585 78.0484 2.60413 78.8555L3.0734 81.3414C4.25956 86.8498 6.08405 92.2019 8.5102 97.2896Z" fill="#FCD5AC"/>
<path d="M542.225 524.196C541.427 528.811 541.097 533.494 541.237 538.175C541.592 546.712 543.061 555.166 545.606 563.324C547.807 571.28 550.615 579.056 554.004 586.585C557.449 594.149 561.795 601.27 566.949 607.795C572.335 614.584 578.604 620.625 585.59 625.761C593.421 631.235 602.424 634.811 611.884 636.205C616.898 636.953 621.988 637.056 627.029 636.512C631.898 635.969 636.656 634.69 641.139 632.719C645.116 630.936 648.838 628.635 652.207 625.874C655.221 623.359 658.079 620.664 660.767 617.803C662.157 616.306 663.409 614.685 664.504 612.961C665.536 611.152 666.418 609.263 667.142 607.311C668.499 603.279 669.443 599.12 669.957 594.898C671.163 586.121 671.261 577.227 670.249 568.425C669.287 559.973 666.528 551.823 662.158 544.519C657.929 537.596 652.35 531.591 645.751 526.86C638.939 522.25 631.607 518.458 623.906 515.56C616.236 512.525 608.809 509.668 601.754 506.343C594.699 503.018 587.871 499.321 579.279 496.658C576.985 495.934 574.629 495.426 572.24 495.141C569.455 494.767 566.63 494.81 563.858 495.27C560.139 495.985 556.671 497.654 553.794 500.112C553.079 500.737 552.398 501.4 551.755 502.098C551.156 502.776 550.558 503.47 549.991 504.196C548.998 505.538 548.106 506.952 547.322 508.425C546.594 509.775 545.946 511.166 545.38 512.59C544.894 513.881 544.344 515.302 544.004 516.545L543.438 518.498L542.969 520.387C542.661 521.759 542.451 522.953 542.225 524.196Z" fill="#FCD5AC"/>
</g>
<g opacity="0.4">
<path d="M85.1596 253.221C47.1181 223.746 8.85005 229.476 8.85005 229.476C8.85005 229.476 8.67208 268.088 43.3965 301.389C72.7003 329.492 100.515 327.894 110.111 316.853C119.706 305.811 117.263 278.079 85.1596 253.221Z" fill="#FCD5AC"/>
<path d="M89.3834 272.284C65.2737 253.592 41.0184 257.24 41.0184 257.24C41.0184 257.24 40.9051 281.695 62.9113 302.825C81.4871 320.581 99.1406 319.629 105.208 312.623C111.276 305.618 109.739 288.039 89.3834 272.284Z" fill="#FFF7ED"/>
</g>
<path d="M71.9237 282.373L74.804 280.081C75.0008 279.925 75.1649 279.733 75.2869 279.514C75.4089 279.295 75.4864 279.054 75.515 278.805C75.5435 278.556 75.5226 278.304 75.4533 278.063C75.3841 277.822 75.2679 277.597 75.1114 277.401C74.9543 277.206 74.7601 277.044 74.54 276.924C74.3199 276.804 74.0782 276.728 73.8288 276.701C73.5793 276.674 73.3269 276.696 73.0861 276.767C72.8453 276.837 72.6208 276.954 72.4254 277.111L69.5451 279.403C69.35 279.558 69.1877 279.751 69.0674 279.969C68.9471 280.187 68.8712 280.427 68.8441 280.674C68.817 280.922 68.8393 281.172 68.9096 281.411C68.98 281.65 69.0969 281.873 69.2539 282.067C69.4084 282.262 69.6003 282.426 69.8184 282.547C70.0365 282.669 70.2766 282.746 70.5248 282.774C70.773 282.803 71.0244 282.782 71.2645 282.713C71.5046 282.644 71.7286 282.529 71.9237 282.373Z" fill="#FCD5AC"/>
<path d="M104.399 311.929L106.405 308.846C106.681 308.424 106.778 307.91 106.675 307.417C106.572 306.924 106.277 306.492 105.855 306.215C105.645 306.076 105.409 305.98 105.162 305.933C104.915 305.886 104.66 305.887 104.414 305.938C104.167 305.989 103.933 306.089 103.725 306.23C103.517 306.372 103.339 306.553 103.201 306.764L101.195 309.847C100.921 310.271 100.826 310.786 100.933 311.279C101.039 311.773 101.337 312.204 101.761 312.478C102.184 312.753 102.699 312.85 103.194 312.747C103.688 312.644 104.121 312.35 104.399 311.929Z" fill="#FCD5AC"/>
<path d="M85.4354 276.514L87.4257 276.514C87.6765 276.505 87.9232 276.448 88.1516 276.344C88.3801 276.241 88.5859 276.093 88.7572 275.911C88.9285 275.728 89.062 275.513 89.1501 275.278C89.2381 275.044 89.279 274.795 89.2704 274.544C89.262 274.294 89.2043 274.048 89.1005 273.82C88.9968 273.592 88.849 273.387 88.6656 273.216C88.4823 273.045 88.267 272.912 88.032 272.824C87.7971 272.736 87.547 272.696 87.2963 272.704L85.3222 272.704C85.0721 272.711 84.8258 272.766 84.5974 272.868C84.369 272.97 84.1632 273.116 83.9917 273.297C83.8201 273.479 83.6864 273.693 83.5981 273.926C83.5099 274.159 83.4689 274.408 83.4775 274.657C83.4838 274.908 83.5395 275.154 83.6413 275.383C83.7431 275.611 83.8891 275.818 84.0709 275.99C84.2527 276.163 84.4668 276.298 84.701 276.387C84.9351 276.477 85.1847 276.52 85.4354 276.514Z" fill="#FCD5AC"/>
<path d="M67.118 300.388L67.118 298.418C67.1118 298.169 67.056 297.923 66.954 297.695C66.852 297.468 66.7057 297.262 66.5237 297.091C66.3416 296.92 66.1274 296.787 65.8933 296.699C65.6593 296.611 65.4101 296.57 65.1601 296.578C64.9094 296.585 64.6623 296.64 64.4331 296.742C64.2038 296.843 63.9969 296.989 63.8241 297.17C63.6512 297.352 63.5159 297.565 63.4259 297.799C63.3359 298.032 63.2929 298.281 63.2993 298.531L63.2993 300.517C63.3056 300.766 63.3613 301.012 63.4633 301.24C63.5653 301.468 63.7116 301.673 63.8937 301.844C64.0757 302.015 64.2899 302.149 64.524 302.237C64.758 302.325 65.0072 302.366 65.2572 302.357C65.5094 302.351 65.7578 302.295 65.9882 302.192C66.2185 302.09 66.4262 301.943 66.5992 301.759C66.7722 301.576 66.9071 301.361 66.9962 301.125C67.0853 300.89 67.1267 300.639 67.118 300.388Z" fill="#FCD5AC"/>
<path d="M109.302 300.969L109.529 299.016C109.585 298.523 109.448 298.028 109.146 297.634C108.844 297.24 108.402 296.977 107.911 296.901C107.405 296.847 106.897 296.995 106.5 297.312C106.103 297.63 105.848 298.091 105.791 298.596L105.581 300.549C105.521 301.041 105.657 301.536 105.959 301.929C106.262 302.321 106.707 302.579 107.199 302.648C107.448 302.677 107.7 302.656 107.941 302.588C108.182 302.519 108.406 302.403 108.602 302.247C108.798 302.091 108.96 301.897 109.081 301.678C109.201 301.459 109.276 301.218 109.302 300.969Z" fill="#FCD5AC"/>
<path d="M77.1828 318.176L79.0274 318.903C79.2611 318.994 79.5106 319.038 79.7616 319.034C80.0126 319.029 80.2602 318.974 80.4901 318.874C80.7201 318.774 80.9279 318.629 81.1017 318.448C81.2755 318.267 81.412 318.054 81.5031 317.821C81.5947 317.588 81.6393 317.339 81.6344 317.089C81.6295 316.838 81.5752 316.591 81.4745 316.362C81.3738 316.133 81.2287 315.925 81.0476 315.752C80.8665 315.578 80.6529 315.442 80.419 315.351L78.5743 314.641C78.1044 314.456 77.5799 314.464 77.1158 314.663C76.6517 314.863 76.286 315.238 76.0987 315.706C76.0048 315.939 75.9585 316.189 75.9623 316.44C75.9662 316.691 76.0202 316.938 76.1211 317.168C76.2221 317.398 76.3679 317.606 76.5502 317.779C76.7325 317.952 76.9476 318.087 77.1828 318.176Z" fill="#FCD5AC"/>
<path d="M83.8148 318.358C71.7273 317.011 63.0223 306.145 64.3718 294.087C65.7212 282.028 76.614 273.344 88.7015 274.69C100.789 276.037 109.494 286.903 108.145 298.962C106.795 311.02 95.9023 319.704 83.8148 318.358Z" fill="#FCD5AC"/>
<path d="M95.6934 284.504C95.6356 285.561 95.2321 286.57 94.5445 287.377C93.8596 288.215 92.959 288.851 91.9393 289.217C90.8883 289.601 89.7293 289.567 88.7031 289.12C87.728 288.69 86.937 287.93 86.4702 286.974C87.1822 287.637 88.0335 288.133 88.962 288.426C89.3976 288.553 89.8523 288.603 90.305 288.572C90.7584 288.558 91.2065 288.471 91.6319 288.313L92.2791 288.055C92.4895 287.942 92.6999 287.845 92.894 287.716C93.2935 287.474 93.6675 287.193 94.0105 286.877C94.7253 286.206 95.2976 285.399 95.6934 284.504Z" fill="#B0B8C9"/>
<path d="M87.6841 284.891C87.6727 284.149 87.9184 283.425 88.3799 282.841C88.8463 282.242 89.4752 281.788 90.1922 281.534C90.9099 281.26 91.7061 281.276 92.4126 281.577C93.1191 281.878 93.6806 282.442 93.9785 283.148C93.4612 282.742 92.8667 282.446 92.2309 282.276C91.6623 282.138 91.0651 282.172 90.5158 282.373C89.2882 282.828 88.2773 283.727 87.6841 284.891Z" fill="#B0B8C9"/>
<path d="M78.5732 299.048C78.7728 299.746 78.7095 300.492 78.3952 301.146C78.0925 301.824 77.5828 302.389 76.9389 302.761C76.6124 302.966 76.2471 303.101 75.8658 303.16C75.4845 303.218 75.0952 303.198 74.7222 303.1C74.0141 302.925 73.3967 302.493 72.9908 301.889C73.5726 302.157 74.1969 302.32 74.8354 302.373C75.4059 302.389 75.9686 302.238 76.4535 301.937C76.9657 301.644 77.4118 301.248 77.7641 300.775C78.1383 300.254 78.4126 299.668 78.5732 299.048Z" fill="#B0B8C9"/>
<path d="M73.7683 301.017C73.6681 300.785 73.6165 300.535 73.6165 300.283C73.6165 300.03 73.6681 299.78 73.7683 299.548C73.9688 299.054 74.3272 298.64 74.7877 298.37C75.0272 298.223 75.2946 298.127 75.5731 298.088C75.8516 298.049 76.1351 298.068 76.4058 298.144C76.652 298.217 76.8809 298.339 77.0784 298.502C77.2759 298.666 77.438 298.868 77.5547 299.096C77.1417 298.962 76.7107 298.892 76.2764 298.887C75.9268 298.905 75.5873 299.01 75.2893 299.193C74.5968 299.62 74.0627 300.26 73.7683 301.017Z" fill="#B0B8C9"/>
<path d="M71.276 293.318C71.4493 293.518 71.5801 293.752 71.6607 294.004C71.7413 294.257 71.7701 294.523 71.7452 294.787C71.7189 295.072 71.6352 295.349 71.4989 295.602C71.3627 295.854 71.1768 296.076 70.9524 296.255C70.7275 296.434 70.4655 296.56 70.1855 296.624C69.9055 296.688 69.6147 296.689 69.3343 296.627C68.8222 296.515 68.3648 296.23 68.0399 295.82C68.4921 295.858 68.9468 295.858 69.399 295.82C69.766 295.813 70.1197 295.682 70.4023 295.448C70.6915 295.213 70.9145 294.907 71.0495 294.561C71.1921 294.161 71.2686 293.741 71.276 293.318Z" fill="#B0B8C9"/>
<path d="M68.3315 295.125C68.1808 295.005 68.0621 294.849 67.9859 294.671C67.9098 294.494 67.8784 294.301 67.8946 294.109C67.9024 293.895 67.9572 293.686 68.0551 293.497C68.153 293.307 68.2915 293.141 68.4609 293.011C68.6292 292.871 68.8293 292.774 69.0436 292.729C69.258 292.684 69.4801 292.692 69.6907 292.753C69.8751 292.8 70.0478 292.885 70.198 293.001C70.3483 293.118 70.4731 293.264 70.5645 293.431C70.2502 293.436 69.9366 293.463 69.6259 293.511C69.4196 293.543 69.2247 293.626 69.0596 293.753C68.8819 293.896 68.7335 294.071 68.6227 294.27C68.489 294.541 68.3911 294.829 68.3315 295.125Z" fill="#B0B8C9"/>
<path d="M102.004 290.202C102 290.469 101.942 290.733 101.833 290.977C101.725 291.221 101.568 291.44 101.373 291.623C101.157 291.823 100.902 291.977 100.623 292.074C100.345 292.171 100.049 292.21 99.7548 292.188C99.4597 292.175 99.1717 292.094 98.9133 291.951C98.655 291.808 98.4335 291.607 98.2661 291.364C97.9639 290.936 97.8157 290.418 97.8453 289.896C98.1398 290.241 98.4648 290.56 98.8162 290.848C99.1006 291.07 99.4436 291.204 99.8033 291.235C100.178 291.254 100.551 291.176 100.887 291.009C101.301 290.802 101.678 290.53 102.004 290.202Z" fill="#B0B8C9"/>
<path d="M98.5901 289.572C98.5641 289.382 98.5826 289.188 98.6444 289.006C98.7062 288.824 98.8095 288.659 98.9461 288.523C99.0946 288.371 99.2738 288.252 99.4719 288.174C99.6699 288.096 99.8823 288.061 100.095 288.071C100.299 288.083 100.498 288.138 100.679 288.234C100.859 288.33 101.017 288.465 101.14 288.627C101.263 288.79 101.349 288.978 101.392 289.177C101.435 289.377 101.434 289.583 101.389 289.782C101.098 289.556 100.872 289.363 100.645 289.217C100.461 289.111 100.257 289.045 100.046 289.024C99.8197 289.014 99.5937 289.053 99.3829 289.137C99.0995 289.244 98.8326 289.391 98.5901 289.572Z" fill="#B0B8C9"/>
<path d="M88.0572 303.664C88.8842 304.149 89.8365 304.378 90.7939 304.323C91.7512 304.268 92.6709 303.931 93.4367 303.355C94.2025 302.78 94.7801 301.99 95.0968 301.088C95.4135 300.185 95.455 299.208 95.216 298.282C94.9771 297.355 94.4684 296.52 93.7542 295.882C93.04 295.243 92.1523 294.83 91.203 294.695C90.2537 294.559 89.2854 294.707 88.4203 295.12C87.5552 295.533 86.832 296.192 86.3421 297.014C86.0152 297.563 85.8002 298.17 85.7095 298.802C85.6189 299.434 85.6542 300.077 85.8136 300.695C85.973 301.313 86.2533 301.893 86.6383 302.403C87.0234 302.913 87.5056 303.341 88.0572 303.664Z" fill="#F4711E"/>
<path d="M93.0559 297.45C93.6538 297.802 94.1603 298.289 94.5342 298.872C94.9081 299.455 95.1389 300.118 95.208 300.807C95.4281 300.025 95.4474 299.2 95.2641 298.408C95.0807 297.617 94.7006 296.884 94.1588 296.277C93.6169 295.67 92.9307 295.21 92.1634 294.937C91.3962 294.664 90.5724 294.588 89.7681 294.717C88.9638 294.845 88.2048 295.173 87.561 295.671C86.9172 296.168 86.4092 296.82 86.084 297.565C85.7587 298.31 85.6266 299.124 85.6997 299.934C85.7729 300.743 86.049 301.521 86.5027 302.196C86.3309 301.369 86.4007 300.511 86.7037 299.723C87.0068 298.935 87.5302 298.25 88.212 297.75C88.8937 297.251 89.705 296.956 90.5493 296.903C91.3937 296.85 92.2356 297.04 92.9751 297.45L93.0559 297.45Z" fill="#B0B8C9"/>
<path d="M97.0527 301.033C96.9288 302.318 96.4152 303.534 95.5803 304.52C94.7175 305.531 93.6005 306.294 92.344 306.731C91.0757 307.231 89.6642 307.231 88.3959 306.731C87.2372 306.175 86.2976 305.249 85.726 304.1C86.5729 304.961 87.6169 305.604 88.7681 305.973C89.0427 306.06 89.3241 306.125 89.6095 306.166C89.8944 306.199 90.1821 306.199 90.467 306.166C91.0206 306.149 91.5674 306.04 92.0851 305.844L92.8942 305.521C93.1531 305.375 93.412 305.262 93.6547 305.101C94.1608 304.797 94.6327 304.44 95.0625 304.036C95.9176 303.175 96.5939 302.155 97.0527 301.033Z" fill="#B0B8C9"/>
<path d="M102.215 303.455C102.44 303.534 102.678 303.569 102.917 303.556C103.156 303.544 103.389 303.484 103.605 303.382C103.821 303.279 104.014 303.135 104.174 302.958C104.334 302.781 104.457 302.574 104.536 302.349C104.616 302.124 104.651 301.886 104.638 301.648C104.626 301.41 104.566 301.177 104.463 300.962C104.36 300.747 104.216 300.554 104.038 300.395C103.861 300.235 103.653 300.112 103.428 300.033C102.973 299.882 102.477 299.914 102.045 300.122C101.613 300.33 101.279 300.697 101.114 301.147C100.953 301.598 100.979 302.095 101.185 302.528C101.392 302.961 101.762 303.294 102.215 303.455Z" fill="#F4711E"/>
<path d="M103.526 300.872C103.77 300.958 103.991 301.101 104.168 301.289C104.345 301.477 104.475 301.705 104.546 301.954C104.586 301.553 104.49 301.15 104.273 300.81C104.056 300.47 103.73 300.213 103.348 300.081C102.893 299.93 102.397 299.962 101.965 300.17C101.533 300.378 101.199 300.746 101.034 301.195C100.92 301.519 100.9 301.868 100.978 302.203C101.055 302.537 101.226 302.843 101.471 303.084C101.318 302.7 101.318 302.273 101.471 301.889C101.539 301.687 101.646 301.501 101.786 301.341C101.926 301.18 102.096 301.049 102.287 300.955C102.478 300.86 102.686 300.804 102.898 300.79C103.111 300.776 103.324 300.804 103.526 300.872Z" fill="#B0B8C9"/>
<path d="M105.353 301.857C105.426 302.339 105.341 302.831 105.111 303.261C104.866 303.701 104.509 304.069 104.075 304.326C103.629 304.597 103.095 304.684 102.587 304.569C102.105 304.457 101.68 304.176 101.389 303.778C101.776 304.003 102.206 304.146 102.651 304.197C103.066 304.225 103.478 304.123 103.832 303.907C104.212 303.686 104.543 303.39 104.804 303.038C105.066 302.685 105.253 302.284 105.353 301.857Z" fill="#B0B8C9"/>
<path d="M88.4925 313.785C88.9977 313.871 89.5171 313.805 89.9848 313.596C90.4525 313.387 90.8474 313.045 91.1198 312.612C91.3921 312.179 91.5295 311.675 91.5145 311.164C91.4996 310.653 91.3329 310.158 91.0357 309.741C90.7385 309.325 90.3241 309.006 89.845 308.824C89.3658 308.643 88.8435 308.608 88.3442 308.723C87.8449 308.838 87.3911 309.098 87.0401 309.47C86.6892 309.843 86.4569 310.311 86.3728 310.815C86.3149 311.149 86.3239 311.491 86.3993 311.822C86.4747 312.153 86.6151 312.465 86.8122 312.741C87.0092 313.017 87.2592 313.252 87.5476 313.431C87.8361 313.61 88.1572 313.731 88.4925 313.785Z" fill="#F4711E"/>
<path d="M89.7874 309.734C90.1501 309.795 90.4931 309.941 90.7884 310.16C91.0837 310.379 91.3229 310.664 91.4863 310.993C91.4461 310.36 91.1722 309.764 90.7176 309.321C90.263 308.877 89.6598 308.617 89.0245 308.591C88.3891 308.565 87.7666 308.775 87.277 309.179C86.7874 309.584 86.4654 310.156 86.3732 310.783C86.2926 311.265 86.3502 311.761 86.5391 312.212C86.728 312.663 87.0406 313.052 87.4411 313.334C87.135 312.854 87.0089 312.283 87.0851 311.719C87.1285 311.411 87.2333 311.113 87.3933 310.845C87.5534 310.578 87.7656 310.344 88.0173 310.159C88.2691 309.974 88.5553 309.841 88.8593 309.768C89.1633 309.695 89.4788 309.684 89.7874 309.734Z" fill="#B0B8C9"/>
<path d="M92.474 310.735C92.6498 311.395 92.6215 312.092 92.3931 312.736C92.1715 313.395 91.7743 313.981 91.2442 314.431C90.6994 314.897 90.0037 315.149 89.2864 315.141C88.5947 315.112 87.9334 314.85 87.4094 314.399C87.9908 314.67 88.629 314.797 89.2702 314.77C89.8692 314.714 90.4354 314.471 90.8882 314.076C91.3666 313.673 91.7529 313.172 92.0209 312.607C92.3027 312.022 92.4571 311.384 92.474 310.735Z" fill="#B0B8C9"/>
<path d="M79.8203 287.732C79.3412 288.48 78.6454 289.066 77.8251 289.41C77.0048 289.754 76.099 289.841 75.2279 289.659C74.3568 289.478 73.5617 289.036 72.9483 288.393C72.3348 287.75 71.932 286.936 71.7934 286.059C71.6547 285.182 71.7868 284.284 72.172 283.484C72.5573 282.683 73.1774 282.019 73.9501 281.579C74.7229 281.139 75.6116 280.943 76.4982 281.019C77.3849 281.094 78.2275 281.437 78.9142 282.002C79.793 282.644 80.3814 283.607 80.5511 284.681C80.7209 285.754 80.4582 286.851 79.8203 287.732Z" fill="#F4711E"/>
<path d="M73.8001 283.955C73.4411 284.402 73.2022 284.934 73.106 285.498C73.0097 286.063 73.0593 286.643 73.2499 287.184C72.6644 286.494 72.3311 285.626 72.3047 284.723C72.2782 283.82 72.5602 282.934 73.1043 282.212C73.8533 281.425 74.8822 280.964 75.969 280.928C77.0558 280.892 78.1133 281.283 78.9133 282.018C79.5358 282.508 80.0146 283.157 80.2993 283.895C80.584 284.634 80.6642 285.435 80.5314 286.215C80.3341 285.263 79.8141 284.408 79.0589 283.794C78.338 283.124 77.381 282.765 76.3962 282.795C75.4114 282.825 74.4784 283.242 73.8001 283.955Z" fill="#B0B8C9"/>
<path d="M81.5675 284.972C82.062 285.978 82.1376 287.139 81.7778 288.201C81.5899 288.743 81.2863 289.239 80.8879 289.653C80.5068 290.088 80.0364 290.435 79.5086 290.672C78.9809 290.909 78.4083 291.029 77.8296 291.025C77.2816 291.037 76.7352 290.961 76.2116 290.799C75.1792 290.487 74.2363 289.933 73.4608 289.185C74.3982 289.574 75.3746 289.86 76.3734 290.041C77.3034 290.206 78.2611 290.111 79.1403 289.766C79.555 289.567 79.9369 289.306 80.273 288.992C80.6241 288.685 80.9101 288.312 81.1144 287.894C81.5265 286.978 81.6831 285.969 81.5675 284.972Z" fill="#B0B8C9"/>
<path d="M115.256 500.823L106.34 502.453L104.35 511.831L102.36 502.453L93.4438 500.806L102.327 498.643L104.35 489.798L106.389 498.643L115.256 500.823Z" fill="#B0B8C9"/>
<path d="M483.035 450.201L474.119 451.848L472.129 461.226L470.139 451.848L461.223 450.201L470.09 448.038L472.129 439.193L474.152 448.038L483.035 450.201Z" fill="#B0B8C9"/>
<path d="M206.307 350.008L197.391 351.655L195.401 361.017L193.41 351.655L184.495 350.008L193.362 347.829L195.401 338.983L197.423 347.829L206.307 350.008Z" fill="#B0B8C9"/>
<path d="M30.5332 445.633L25.5494 446.553L24.4329 451.8L23.3165 446.553L18.3489 445.633L23.3003 444.423L24.4329 439.483L25.5656 444.423L30.5332 445.633Z" fill="#B0B8C9"/>
<path d="M408.586 644.987L403.618 645.907L402.502 651.153L401.385 645.907L396.402 644.987L401.369 643.776L402.502 638.837L403.635 643.776L408.586 644.987Z" fill="#B0B8C9"/>
<path d="M42.7168 209.815L37.733 210.735L36.6165 215.965L35.5162 210.735L30.5325 209.799L35.4839 208.605L36.6165 203.649L37.7654 208.605L42.7168 209.815Z" fill="#B0B8C9"/>
<path d="M630.395 322.502L625.411 323.422L624.294 328.652L623.194 323.422L618.21 322.502L623.162 321.292L624.294 316.336L625.427 321.292L630.395 322.502Z" fill="#B0B8C9"/>
<path d="M603.664 589.152L598.68 590.072L597.564 595.302L596.464 590.072L591.48 589.152L596.431 587.941L597.564 582.985L598.713 587.941L603.664 589.152Z" fill="#B0B8C9"/>
<path d="M61.9395 342.519L56.9557 343.439L55.8554 348.669L54.739 343.439L49.7552 342.519L54.7066 341.308L55.8554 336.352L56.9881 341.308L61.9395 342.519Z" fill="#B0B8C9"/>
<path d="M272.084 511.832L267.1 512.752L265.984 517.998L264.867 512.752L259.884 511.832L264.851 510.621L265.984 505.681L267.116 510.621L272.084 511.832Z" fill="#B0B8C9"/>
<path d="M453.375 91.1394L448.391 92.0595L447.275 97.2895L446.158 92.0595L441.191 91.1394L446.142 89.9287L447.275 84.9731L448.407 89.9287L453.375 91.1394Z" fill="#B0B8C9"/>
<path d="M258.346 492.8L253.362 493.72L252.245 498.966L251.129 493.72L246.145 492.8L251.113 491.589L252.245 486.634L253.378 491.589L258.346 492.8Z" fill="#B0B8C9"/>
<path d="M420.383 656.318C420.025 656.356 419.694 656.525 419.453 656.791C419.213 657.058 419.08 657.404 419.08 657.763C419.08 658.122 419.213 658.468 419.453 658.735C419.694 659.002 420.025 659.17 420.383 659.208C420.74 659.17 421.071 659.002 421.312 658.735C421.552 658.468 421.686 658.122 421.686 657.763C421.686 657.404 421.552 657.058 421.312 656.791C421.071 656.525 420.74 656.356 420.383 656.318Z" fill="#B0B8C9"/>
<path d="M162.763 386.118C162.406 386.156 162.075 386.324 161.834 386.591C161.594 386.858 161.46 387.204 161.46 387.563C161.46 387.921 161.594 388.268 161.834 388.534C162.075 388.801 162.406 388.97 162.763 389.007C163.121 388.97 163.452 388.801 163.693 388.534C163.933 388.268 164.066 387.921 164.066 387.563C164.066 387.204 163.933 386.858 163.693 386.591C163.452 386.324 163.121 386.156 162.763 386.118Z" fill="#B0B8C9"/>
<path d="M285.982 507.489C285.6 507.489 285.234 507.641 284.963 507.91C284.693 508.179 284.542 508.545 284.542 508.926C284.542 509.307 284.693 509.672 284.963 509.942C285.234 510.211 285.6 510.363 285.982 510.363C286.364 510.363 286.73 510.211 287 509.942C287.27 509.672 287.422 509.307 287.422 508.926C287.422 508.545 287.27 508.179 287 507.91C286.73 507.641 286.364 507.489 285.982 507.489Z" fill="#B0B8C9"/>
<path d="M500.171 645.519C499.789 645.519 499.423 645.671 499.153 645.94C498.883 646.209 498.731 646.575 498.731 646.956C498.731 647.337 498.883 647.702 499.153 647.972C499.423 648.241 499.789 648.393 500.171 648.393C500.553 648.393 500.919 648.241 501.19 647.972C501.46 647.702 501.611 647.337 501.611 646.956C501.611 646.575 501.46 646.209 501.19 645.94C500.919 645.671 500.553 645.519 500.171 645.519Z" fill="#B0B8C9"/>
<path d="M18.074 664.599C17.7163 664.637 17.3853 664.805 17.1447 665.072C16.9041 665.339 16.771 665.685 16.771 666.044C16.771 666.403 16.9041 666.749 17.1447 667.016C17.3853 667.282 17.7163 667.451 18.074 667.489C18.4317 667.451 18.7627 667.282 19.0032 667.016C19.2438 666.749 19.377 666.403 19.377 666.044C19.377 665.685 19.2438 665.339 19.0032 665.072C18.7627 664.805 18.4317 664.637 18.074 664.599Z" fill="#B0B8C9"/>
<path d="M94.0443 405.004C93.6623 405.004 93.296 405.155 93.0259 405.425C92.7559 405.694 92.6041 406.059 92.6041 406.441C92.6041 406.822 92.7559 407.187 93.0259 407.456C93.296 407.726 93.6623 407.877 94.0443 407.877C94.4262 407.877 94.7925 407.726 95.0626 407.456C95.3326 407.187 95.4844 406.822 95.4844 406.441C95.4844 406.059 95.3326 405.694 95.0626 405.425C94.7925 405.155 94.4262 405.004 94.0443 405.004Z" fill="#B0B8C9"/>
<path d="M384.201 630.41C383.931 630.41 383.672 630.518 383.48 630.708C383.289 630.899 383.182 631.158 383.182 631.427C383.182 631.697 383.289 631.956 383.48 632.146C383.672 632.337 383.931 632.444 384.201 632.444C384.472 632.444 384.731 632.337 384.922 632.146C385.113 631.956 385.221 631.697 385.221 631.427C385.221 631.158 385.113 630.899 384.922 630.708C384.731 630.518 384.472 630.41 384.201 630.41Z" fill="#B0B8C9"/>
<path d="M588.211 101.228C587.96 101.259 587.73 101.381 587.563 101.57C587.396 101.758 587.304 102.001 587.304 102.253C587.304 102.505 587.396 102.748 587.563 102.936C587.73 103.125 587.96 103.247 588.211 103.278C588.461 103.247 588.691 103.125 588.858 102.936C589.025 102.748 589.117 102.505 589.117 102.253C589.117 102.001 589.025 101.758 588.858 101.57C588.691 101.381 588.461 101.259 588.211 101.228Z" fill="#B0B8C9"/>
<path d="M194.139 428.797C193.868 428.797 193.609 428.904 193.418 429.095C193.227 429.286 193.119 429.544 193.119 429.814C193.119 430.084 193.227 430.342 193.418 430.533C193.609 430.724 193.868 430.831 194.139 430.831C194.409 430.831 194.668 430.724 194.86 430.533C195.051 430.342 195.158 430.084 195.158 429.814C195.158 429.544 195.051 429.286 194.86 429.095C194.668 428.904 194.409 428.797 194.139 428.797Z" fill="#B0B8C9"/>
<path d="M243.557 516.981C243.286 516.981 243.027 517.088 242.836 517.279C242.645 517.469 242.537 517.728 242.537 517.998C242.537 518.268 242.645 518.526 242.836 518.717C243.027 518.908 243.286 519.015 243.557 519.015C243.827 519.015 244.086 518.908 244.278 518.717C244.469 518.526 244.576 518.268 244.576 517.998C244.576 517.728 244.469 517.469 244.278 517.279C244.086 517.088 243.827 516.981 243.557 516.981Z" fill="#B0B8C9"/>
<path d="M324.381 499.79C324.13 499.821 323.9 499.942 323.733 500.131C323.566 500.32 323.474 500.563 323.474 500.815C323.474 501.066 323.566 501.309 323.733 501.498C323.9 501.687 324.13 501.808 324.381 501.84C324.631 501.808 324.861 501.687 325.028 501.498C325.195 501.309 325.287 501.066 325.287 500.815C325.287 500.563 325.195 500.32 325.028 500.131C324.861 499.942 324.631 499.821 324.381 499.79Z" fill="#B0B8C9"/>
<path d="M228.831 410.282C228.097 410.282 227.393 410.573 226.874 411.091C226.355 411.609 226.064 412.311 226.064 413.043C226.064 413.775 226.355 414.477 226.874 414.995C227.393 415.512 228.097 415.803 228.831 415.803C229.565 415.803 230.268 415.512 230.787 414.995C231.306 414.477 231.598 413.775 231.598 413.043C231.598 412.311 231.306 411.609 230.787 411.091C230.268 410.573 229.565 410.282 228.831 410.282Z" fill="#B0B8C9"/>
<path d="M370.527 131.333L361.612 132.979L359.621 142.342L357.631 132.979L348.715 131.333L357.599 129.17L359.621 120.308L361.66 129.17L370.527 131.333Z" fill="#B0B8C9"/>
<path d="M336.564 50.1872L331.581 51.1073L330.464 56.3373L329.348 51.1073L324.38 50.1872L329.332 48.9766L330.464 44.021L331.597 48.9766L336.564 50.1872Z" fill="#B0B8C9"/>
<path d="M638.566 184.65C638.184 184.65 637.818 184.801 637.547 185.071C637.277 185.34 637.126 185.706 637.126 186.087C637.126 186.468 637.277 186.833 637.547 187.102C637.818 187.372 638.184 187.523 638.566 187.523C638.948 187.523 639.314 187.372 639.584 187.102C639.854 186.833 640.006 186.468 640.006 186.087C640.006 185.706 639.854 185.34 639.584 185.071C639.314 184.801 638.948 184.65 638.566 184.65Z" fill="#B0B8C9"/>
<path d="M615.881 566.73C615.523 566.768 615.192 566.937 614.951 567.203C614.711 567.47 614.578 567.816 614.578 568.175C614.578 568.534 614.711 568.88 614.951 569.147C615.192 569.414 615.523 569.582 615.881 569.62C616.238 569.582 616.569 569.414 616.81 569.147C617.05 568.88 617.184 568.534 617.184 568.175C617.184 567.816 617.05 567.47 616.81 567.203C616.569 566.937 616.238 566.768 615.881 566.73Z" fill="#B0B8C9"/>
<path d="M654.99 638.239C654.632 638.277 654.301 638.446 654.061 638.712C653.82 638.979 653.687 639.325 653.687 639.684C653.687 640.043 653.82 640.389 654.061 640.656C654.301 640.922 654.632 641.091 654.99 641.129C655.348 641.091 655.679 640.922 655.919 640.656C656.16 640.389 656.293 640.043 656.293 639.684C656.293 639.325 656.16 638.979 655.919 638.712C655.679 638.446 655.348 638.277 654.99 638.239Z" fill="#B0B8C9"/>
<path d="M581.027 305.424C580.669 305.462 580.338 305.63 580.098 305.897C579.857 306.164 579.724 306.51 579.724 306.869C579.724 307.228 579.857 307.574 580.098 307.84C580.338 308.107 580.669 308.276 581.027 308.313C581.385 308.276 581.716 308.107 581.956 307.84C582.197 307.574 582.33 307.228 582.33 306.869C582.33 306.51 582.197 306.164 581.956 305.897C581.716 305.63 581.385 305.462 581.027 305.424Z" fill="#B0B8C9"/>
<path d="M654.99 56.7568C654.632 56.7946 654.301 56.9631 654.061 57.2298C653.82 57.4966 653.687 57.8427 653.687 58.2015C653.687 58.5604 653.82 58.9065 654.061 59.1732C654.301 59.44 654.632 59.6085 654.99 59.6462C655.348 59.6085 655.679 59.44 655.919 59.1732C656.16 58.9065 656.293 58.5604 656.293 58.2015C656.293 57.8427 656.16 57.4966 655.919 57.2298C655.679 56.9631 655.348 56.7946 654.99 56.7568Z" fill="#B0B8C9"/>
<path d="M523.892 498.046C523.642 498.078 523.412 498.199 523.245 498.388C523.078 498.577 522.986 498.82 522.986 499.071C522.986 499.323 523.078 499.566 523.245 499.755C523.412 499.944 523.642 500.065 523.892 500.096C524.143 500.065 524.373 499.944 524.54 499.755C524.707 499.566 524.799 499.323 524.799 499.071C524.799 498.82 524.707 498.577 524.54 498.388C524.373 498.199 524.143 498.078 523.892 498.046Z" fill="#B0B8C9"/>
<path d="M308.393 628.683C308.122 628.683 307.863 628.791 307.672 628.981C307.481 629.172 307.373 629.431 307.373 629.7C307.373 629.97 307.481 630.229 307.672 630.419C307.863 630.61 308.122 630.717 308.393 630.717C308.663 630.717 308.922 630.61 309.114 630.419C309.305 630.229 309.412 629.97 309.412 629.7C309.412 629.431 309.305 629.172 309.114 628.981C308.922 628.791 308.663 628.683 308.393 628.683Z" fill="#B0B8C9"/>
<path d="M156.68 162.422C156.429 162.454 156.199 162.575 156.032 162.764C155.865 162.953 155.773 163.196 155.773 163.447C155.773 163.699 155.865 163.942 156.032 164.131C156.199 164.32 156.429 164.441 156.68 164.472C156.93 164.441 157.16 164.32 157.327 164.131C157.494 163.942 157.586 163.699 157.586 163.447C157.586 163.196 157.494 162.953 157.327 162.764C157.16 162.575 156.93 162.454 156.68 162.422Z" fill="#B0B8C9"/>
<path d="M341.225 100.018C340.954 100.018 340.695 100.125 340.504 100.315C340.313 100.506 340.205 100.765 340.205 101.035C340.205 101.304 340.313 101.563 340.504 101.754C340.695 101.944 340.954 102.051 341.225 102.051C341.495 102.051 341.754 101.944 341.946 101.754C342.137 101.563 342.244 101.304 342.244 101.035C342.244 100.765 342.137 100.506 341.946 100.315C341.754 100.125 341.495 100.018 341.225 100.018Z" fill="#B0B8C9"/>
<path d="M402.503 461.84C401.769 461.84 401.065 462.13 400.546 462.648C400.027 463.166 399.736 463.868 399.736 464.6C399.736 465.332 400.027 466.034 400.546 466.552C401.065 467.069 401.769 467.36 402.503 467.36C403.236 467.36 403.94 467.069 404.459 466.552C404.978 466.034 405.27 465.332 405.27 464.6C405.27 463.868 404.978 463.166 404.459 462.648C403.94 462.13 403.236 461.84 402.503 461.84Z" fill="#B0B8C9"/>
<path d="M37.8469 253.173C37.1475 253.226 36.4941 253.541 36.0174 254.054C35.5407 254.567 35.2758 255.241 35.2758 255.941C35.2758 256.641 35.5407 257.315 36.0174 257.828C36.4941 258.341 37.1475 258.656 37.8469 258.709C38.5463 258.656 39.1997 258.341 39.6764 257.828C40.1531 257.315 40.418 256.641 40.418 255.941C40.418 255.241 40.1531 254.567 39.6764 254.054C39.1997 253.541 38.5463 253.226 37.8469 253.173Z" fill="#B0B8C9"/>
<path d="M604.376 495.286C603.642 495.286 602.938 495.577 602.419 496.094C601.9 496.612 601.609 497.314 601.609 498.046C601.609 498.778 601.9 499.48 602.419 499.998C602.938 500.516 603.642 500.806 604.376 500.806C605.109 500.806 605.813 500.516 606.332 499.998C606.851 499.48 607.143 498.778 607.143 498.046C607.143 497.314 606.851 496.612 606.332 496.094C605.813 495.577 605.109 495.286 604.376 495.286Z" fill="#B0B8C9"/>
<path d="M371.822 389.007L366.839 389.927L365.722 395.157L364.606 389.927L359.622 389.007L364.589 387.796L365.722 382.841L366.855 387.796L371.822 389.007Z" fill="#B0B8C9"/>
<path d="M265.982 639.644L260.999 640.564L259.882 645.794L258.782 640.564L253.798 639.628L258.75 638.433L259.882 633.478L261.031 638.433L265.982 639.644Z" fill="#B0B8C9"/>
<path d="M243.912 575.092C243.554 575.13 243.223 575.298 242.983 575.565C242.742 575.832 242.609 576.178 242.609 576.536C242.609 576.895 242.742 577.241 242.983 577.508C243.223 577.775 243.554 577.943 243.912 577.981C244.27 577.943 244.601 577.775 244.841 577.508C245.082 577.241 245.215 576.895 245.215 576.536C245.215 576.178 245.082 575.832 244.841 575.565C244.601 575.298 244.27 575.13 243.912 575.092Z" fill="#B0B8C9"/>
<path d="M187.666 536.771C187.308 536.809 186.977 536.977 186.736 537.244C186.496 537.511 186.363 537.857 186.363 538.216C186.363 538.575 186.496 538.921 186.736 539.187C186.977 539.454 187.308 539.623 187.666 539.66C188.023 539.623 188.354 539.454 188.595 539.187C188.836 538.921 188.969 538.575 188.969 538.216C188.969 537.857 188.836 537.511 188.595 537.244C188.354 536.977 188.023 536.809 187.666 536.771Z" fill="#B0B8C9"/>
<path d="M365.723 602.937L360.739 603.857L359.622 609.103L358.506 603.857L353.522 602.937L358.49 601.726L359.622 596.771L360.755 601.726L365.723 602.937Z" fill="#B0B8C9"/>
<path d="M160.644 138.936C160.287 138.974 159.956 139.142 159.715 139.409C159.474 139.676 159.341 140.022 159.341 140.38C159.341 140.739 159.474 141.085 159.715 141.352C159.956 141.619 160.287 141.787 160.644 141.825C161.002 141.787 161.333 141.619 161.574 141.352C161.814 141.085 161.947 140.739 161.947 140.38C161.947 140.022 161.814 139.676 161.574 139.409C161.333 139.142 161.002 138.974 160.644 138.936Z" fill="#B0B8C9"/>
<path d="M125.904 541.387C125.634 541.387 125.375 541.495 125.184 541.685C124.992 541.876 124.885 542.135 124.885 542.404C124.885 542.674 124.992 542.933 125.184 543.123C125.375 543.314 125.634 543.421 125.904 543.421C126.175 543.421 126.434 543.314 126.625 543.123C126.816 542.933 126.924 542.674 126.924 542.404C126.924 542.135 126.816 541.876 126.625 541.685C126.434 541.495 126.175 541.387 125.904 541.387Z" fill="#B0B8C9"/>
<path d="M560.605 368.055L555.622 368.975L554.521 374.205L553.405 368.975L548.421 368.055L553.373 366.844L554.521 361.889L555.654 366.844L560.605 368.055Z" fill="#B0B8C9"/>
<path d="M618.21 447.328C617.828 447.328 617.462 447.479 617.192 447.749C616.922 448.018 616.77 448.384 616.77 448.765C616.77 449.146 616.922 449.511 617.192 449.781C617.462 450.05 617.828 450.201 618.21 450.201C618.592 450.201 618.959 450.05 619.229 449.781C619.499 449.511 619.65 449.146 619.65 448.765C619.65 448.384 619.499 448.018 619.229 447.749C618.959 447.479 618.592 447.328 618.21 447.328Z" fill="#B0B8C9"/>
<path d="M419.054 341.227C418.672 341.227 418.306 341.378 418.036 341.648C417.766 341.917 417.614 342.283 417.614 342.664C417.614 343.045 417.766 343.41 418.036 343.68C418.306 343.949 418.672 344.1 419.054 344.1C419.436 344.1 419.802 343.949 420.072 343.68C420.342 343.41 420.494 343.045 420.494 342.664C420.494 342.283 420.342 341.917 420.072 341.648C419.802 341.378 419.436 341.227 419.054 341.227Z" fill="#B0B8C9"/>
<path d="M588.211 195.675C587.96 195.706 587.73 195.828 587.563 196.016C587.396 196.205 587.304 196.448 587.304 196.7C587.304 196.951 587.396 197.195 587.563 197.383C587.73 197.572 587.96 197.693 588.211 197.725C588.461 197.693 588.691 197.572 588.858 197.383C589.025 197.195 589.117 196.951 589.117 196.7C589.117 196.448 589.025 196.205 588.858 196.016C588.691 195.828 588.461 195.706 588.211 195.675Z" fill="#B0B8C9"/>
<path d="M601.301 186.264C600.568 186.264 599.864 186.555 599.345 187.073C598.826 187.59 598.534 188.292 598.534 189.024C598.534 189.757 598.826 190.459 599.345 190.976C599.864 191.494 600.568 191.785 601.301 191.785C602.035 191.785 602.739 191.494 603.258 190.976C603.777 190.459 604.068 189.757 604.068 189.024C604.068 188.292 603.777 187.59 603.258 187.073C602.739 186.555 602.035 186.264 601.301 186.264Z" fill="#B0B8C9"/>
<path d="M35.1764 64.376C34.4426 64.376 33.7388 64.6668 33.2199 65.1844C32.701 65.7021 32.4094 66.4042 32.4094 67.1363C32.4094 67.8683 32.701 68.5704 33.2199 69.0881C33.7388 69.6057 34.4426 69.8965 35.1764 69.8965C35.9103 69.8965 36.614 69.6057 37.1329 69.0881C37.6518 68.5704 37.9434 67.8683 37.9434 67.1363C37.9434 66.4042 37.6518 65.7021 37.1329 65.1844C36.614 64.6668 35.9103 64.376 35.1764 64.376Z" fill="#B0B8C9"/>
<path d="M363.004 150.493C364.153 149.121 430.722 118.322 491.012 164.214C546.432 206.409 565.671 285.715 558.309 287.619C549.296 289.944 524.604 252.107 477.21 231.3C460.398 223.923 433.65 231.3 433.65 231.3L363.004 150.493Z" fill="#E55511"/>
<path opacity="0.1" d="M433.619 231.284C441.556 229.27 449.702 228.186 457.891 228.055C447.438 206.232 427.923 165.521 415.254 139.146C385.432 139.42 363.588 149.735 362.924 150.445L433.619 231.284Z" fill="#F4711E"/>
<path d="M253.346 279.516C252.181 280.872 232.602 351.429 287.86 403.245C338.652 450.896 420.22 456.852 420.9 449.298C421.725 440.048 380.253 421.937 351.937 378.693C341.904 363.358 344.801 335.82 344.801 335.82L253.346 279.516Z" fill="#E55511"/>
<path opacity="0.1" d="M250.774 333.237L345.691 360.791C344.423 352.53 344.146 344.147 344.866 335.82L253.411 279.516C252.683 280.291 245.919 303.681 250.774 333.237Z" fill="#F4711E"/>
<path d="M408.327 365.763L473.342 289.266C473.342 289.266 439.362 198.564 358.845 137.645C318.603 107.249 271.468 84.5052 229.122 69.4609C170.79 48.6054 121.988 42.6006 114.431 51.4464C106.875 60.2922 120.904 107.395 150.968 161.422C172.796 200.501 203.022 243.245 239.656 277.886C313.085 347.232 408.327 365.763 408.327 365.763Z" fill="#B0B8C9"/>
<path d="M250.385 245.134C259.129 252.538 269.879 257.188 281.273 258.496C292.668 259.804 304.195 257.711 314.397 252.481C324.599 247.252 333.016 239.122 338.585 229.119C344.154 219.116 346.623 207.69 345.681 196.287C344.739 184.884 340.427 174.015 333.292 165.057C326.157 156.099 316.518 149.453 305.596 145.961C294.673 142.469 282.958 142.287 271.932 145.438C260.906 148.59 251.065 154.933 243.653 163.665C233.729 175.365 228.865 190.514 230.127 205.789C231.389 221.063 238.674 235.213 250.385 245.134Z" fill="#D5D9E2"/>
<path d="M247.213 239.759C255.96 247.156 266.709 251.8 278.101 253.103C289.493 254.406 301.016 252.31 311.214 247.079C321.412 241.849 329.826 233.719 335.392 223.718C340.959 213.718 343.427 202.295 342.486 190.894C341.544 179.494 337.235 168.628 330.104 159.671C322.972 150.713 313.338 144.067 302.419 140.572C291.501 137.077 279.789 136.89 268.764 140.035C257.739 143.18 247.897 149.516 240.482 158.242C230.543 169.944 225.669 185.104 226.931 200.39C228.193 215.676 235.489 229.837 247.213 239.759Z" fill="#E55511"/>
<path d="M258.686 226.216C264.747 231.356 272.2 234.588 280.102 235.501C288.005 236.415 296.001 234.97 303.08 231.348C310.159 227.727 316.002 222.092 319.869 215.157C323.737 208.222 325.456 200.298 324.808 192.388C324.16 184.479 321.175 176.938 316.23 170.722C311.285 164.505 304.602 159.891 297.028 157.464C289.454 155.037 281.328 154.906 273.679 157.088C266.03 159.269 259.202 163.665 254.058 169.719C247.169 177.826 243.788 188.329 244.655 198.922C245.523 209.515 250.569 219.331 258.686 226.216Z" fill="#FFF7ED"/>
<path d="M258.669 226.216C262.463 229.438 266.825 231.929 271.533 233.56L303.895 230.929C308.274 228.561 312.171 225.397 315.383 221.599C317.742 218.842 319.708 215.773 321.225 212.479L251.484 218.145C253.498 221.15 255.915 223.866 258.669 226.216Z" fill="#FCD5AC"/>
<path d="M250.579 174.448L314.947 169.218C313.651 167.732 312.245 166.345 310.74 165.07C302.615 158.193 292.085 154.817 281.465 155.683C270.846 156.549 261.005 161.585 254.107 169.686C252.811 171.182 251.632 172.774 250.579 174.448Z" fill="#FCD5AC"/>
<path d="M247.084 209.831L324.106 203.552C324.361 202.374 324.55 201.183 324.672 199.985L245.967 206.441C246.275 207.539 246.663 208.685 247.084 209.831Z" fill="#FCD5AC"/>
<path d="M150.969 161.421L229.123 69.4122C170.791 48.6052 121.989 42.6004 114.432 51.4462C106.876 60.292 120.84 107.394 150.969 161.421Z" fill="#E55511"/>
<path d="M206.147 77.225C206.656 77.6582 207.283 77.9309 207.948 78.0085C208.613 78.086 209.286 77.965 209.882 77.6606C210.478 77.3563 210.97 76.8824 211.295 76.299C211.621 75.7155 211.766 75.0487 211.711 74.3831C211.657 73.7175 211.406 73.083 210.989 72.56C210.573 72.0369 210.011 71.6489 209.373 71.445C208.736 71.2411 208.052 71.2306 207.408 71.4147C206.765 71.5988 206.191 71.9693 205.758 72.4792C205.181 73.1607 204.897 74.0426 204.97 74.9321C205.043 75.8215 205.466 76.646 206.147 77.225Z" fill="#FFF7ED"/>
<path d="M192.246 93.593C192.584 93.8891 192.977 94.1152 193.403 94.2579C193.829 94.4007 194.28 94.4572 194.728 94.4243C195.176 94.3913 195.613 94.2696 196.014 94.0661C196.415 93.8626 196.77 93.5815 197.061 93.2393C197.351 92.897 197.57 92.5004 197.705 92.0726C197.84 91.6449 197.888 91.1946 197.847 90.7481C197.805 90.3016 197.675 89.8678 197.463 89.4722C197.252 89.0765 196.963 88.7268 196.615 88.4437C195.928 87.8857 195.049 87.6188 194.167 87.7005C193.285 87.7821 192.47 88.2057 191.898 88.8802C191.326 89.5546 191.042 90.4262 191.107 91.3075C191.172 92.1887 191.581 93.0094 192.246 93.593Z" fill="#FFF7ED"/>
<path d="M178.348 109.945C178.862 110.363 179.488 110.621 180.148 110.686C180.809 110.752 181.474 110.622 182.061 110.314C182.648 110.005 183.13 109.531 183.449 108.95C183.768 108.37 183.909 107.709 183.854 107.049C183.798 106.389 183.55 105.761 183.139 105.241C182.729 104.721 182.174 104.333 181.544 104.126C180.914 103.918 180.236 103.9 179.596 104.074C178.956 104.247 178.381 104.605 177.943 105.102C177.641 105.442 177.411 105.84 177.267 106.271C177.123 106.702 177.068 107.157 177.106 107.61C177.144 108.063 177.273 108.503 177.487 108.904C177.7 109.306 177.993 109.66 178.348 109.945Z" fill="#FFF7ED"/>
<path d="M164.432 126.313C164.945 126.733 165.57 126.993 166.23 127.061C166.89 127.129 167.556 127.001 168.144 126.695C168.732 126.388 169.217 125.916 169.537 125.336C169.858 124.757 170.001 124.096 169.948 123.436C169.895 122.776 169.649 122.146 169.24 121.625C168.831 121.104 168.277 120.714 167.648 120.505C167.018 120.295 166.341 120.275 165.7 120.447C165.059 120.618 164.483 120.974 164.044 121.47C163.742 121.81 163.513 122.207 163.369 122.637C163.225 123.067 163.17 123.522 163.206 123.974C163.242 124.426 163.37 124.866 163.58 125.268C163.791 125.67 164.08 126.025 164.432 126.313Z" fill="#FFF7ED"/>
<path d="M150.452 142.681C150.962 143.112 151.588 143.382 152.253 143.458C152.917 143.534 153.588 143.412 154.183 143.107C154.778 142.803 155.268 142.329 155.593 141.746C155.918 141.163 156.063 140.498 156.008 139.833C155.954 139.168 155.704 138.535 155.289 138.012C154.874 137.489 154.313 137.101 153.676 136.896C153.04 136.691 152.358 136.679 151.714 136.861C151.071 137.043 150.497 137.411 150.063 137.919C149.775 138.257 149.556 138.648 149.419 139.07C149.283 139.493 149.231 139.938 149.267 140.38C149.303 140.823 149.426 141.253 149.63 141.648C149.833 142.043 150.112 142.394 150.452 142.681Z" fill="#FFF7ED"/>
<path d="M454.653 287.474C455.34 288.032 456.218 288.299 457.1 288.217C457.982 288.136 458.797 287.712 459.369 287.038C459.942 286.363 460.226 285.492 460.161 284.61C460.096 283.729 459.687 282.908 459.022 282.325C458.684 282.029 458.291 281.803 457.865 281.66C457.438 281.517 456.988 281.461 456.54 281.493C456.091 281.526 455.654 281.648 455.254 281.852C454.853 282.055 454.497 282.336 454.207 282.678C453.916 283.021 453.697 283.417 453.562 283.845C453.427 284.273 453.379 284.723 453.421 285.17C453.462 285.616 453.593 286.05 453.804 286.446C454.016 286.841 454.304 287.191 454.653 287.474Z" fill="#D5D9E2"/>
<path d="M440.674 303.842C441.187 304.262 441.813 304.522 442.473 304.59C443.133 304.658 443.798 304.531 444.386 304.224C444.974 303.917 445.459 303.445 445.78 302.865C446.1 302.286 446.243 301.625 446.19 300.965C446.137 300.305 445.891 299.676 445.482 299.154C445.073 298.633 444.519 298.244 443.89 298.034C443.26 297.825 442.583 297.804 441.942 297.976C441.301 298.148 440.725 298.504 440.286 299C439.985 299.339 439.755 299.736 439.611 300.166C439.468 300.597 439.412 301.051 439.448 301.503C439.485 301.955 439.612 302.395 439.822 302.797C440.033 303.199 440.323 303.555 440.674 303.842Z" fill="#D5D9E2"/>
<path d="M426.774 320.242C427.284 320.674 427.911 320.944 428.575 321.02C429.239 321.096 429.911 320.974 430.505 320.669C431.1 320.365 431.591 319.891 431.916 319.308C432.24 318.725 432.385 318.059 432.331 317.395C432.276 316.73 432.026 316.096 431.611 315.574C431.196 315.051 430.635 314.663 429.999 314.458C429.363 314.253 428.68 314.241 428.037 314.423C427.394 314.605 426.819 314.973 426.386 315.481C426.097 315.818 425.878 316.21 425.742 316.632C425.605 317.054 425.553 317.5 425.589 317.942C425.625 318.384 425.749 318.815 425.952 319.21C426.155 319.605 426.435 319.956 426.774 320.242Z" fill="#D5D9E2"/>
<path d="M412.875 336.562C413.388 336.982 414.014 337.242 414.674 337.31C415.334 337.378 415.999 337.25 416.587 336.943C417.175 336.637 417.66 336.164 417.981 335.585C418.302 335.005 418.444 334.345 418.392 333.685C418.339 333.025 418.092 332.395 417.683 331.874C417.274 331.353 416.72 330.963 416.091 330.754C415.462 330.544 414.784 330.524 414.143 330.696C413.502 330.867 412.926 331.223 412.487 331.719C412.186 332.059 411.956 332.456 411.813 332.886C411.669 333.316 411.613 333.771 411.649 334.223C411.686 334.675 411.813 335.115 412.024 335.517C412.234 335.919 412.524 336.274 412.875 336.562Z" fill="#D5D9E2"/>
<path d="M398.974 352.914C399.489 353.332 400.115 353.59 400.775 353.655C401.436 353.721 402.101 353.591 402.688 353.282C403.274 352.974 403.757 352.5 404.076 351.919C404.395 351.339 404.536 350.677 404.481 350.018C404.425 349.358 404.177 348.729 403.766 348.21C403.356 347.69 402.801 347.302 402.171 347.094C401.541 346.887 400.863 346.869 400.223 347.043C399.583 347.216 399.008 347.574 398.57 348.071C398.268 348.411 398.038 348.808 397.894 349.239C397.75 349.67 397.695 350.126 397.733 350.579C397.771 351.031 397.9 351.472 398.114 351.873C398.327 352.275 398.62 352.629 398.974 352.914Z" fill="#D5D9E2"/>
<path opacity="0.2" d="M118.088 49.1703C163.103 52.3987 241.064 79.5817 323.085 143.762C383.699 191.171 427.922 274.141 448.536 318.451L473.342 289.266C473.342 289.266 439.362 198.564 358.845 137.644C318.603 107.249 271.468 84.505 229.122 69.4607C176.841 50.7522 132.23 43.9725 118.088 49.1703Z" fill="#FFF7ED"/>
<path d="M437.373 378.224L490.236 316.013L469.67 293.592L411.839 361.647L437.373 378.224Z" fill="#E55511"/>
<path opacity="0.1" d="M411.838 361.647L424.282 369.718L477.533 302.164L469.669 293.608L411.838 361.647Z" fill="#F4711E"/>
<path d="M151.794 169.735L175.953 168.121L187.312 191.075L186.276 165.506L208.25 155.368L183.849 155.611L172.749 134.029L173.331 158.274L151.794 169.735Z" fill="#FFF7ED"/>
<path d="M157.732 80.7117L171.243 79.8239L177.586 92.6568L177.004 78.355L189.285 72.6892L175.645 72.8183L169.447 60.7603L169.771 74.3195L157.732 80.7117Z" fill="#FFF7ED"/>
<path d="M266.986 354.35L280.481 353.446L286.824 366.279L286.258 351.994L298.539 346.328L284.898 346.457L278.685 334.399L279.025 347.958L266.986 354.35Z" fill="#FFF7ED"/>
<path d="M507.306 235.303L520.818 234.399L527.161 247.232L526.578 232.947L538.859 227.281L525.219 227.41L519.021 215.352L519.345 228.895L507.306 235.303Z" fill="#FFF7ED"/>
<path d="M448.99 364.342C473.504 380.823 495.138 401.856 510.931 426.989C527.135 452.249 536.29 481.364 537.452 511.331C537.84 526.521 535.981 541.686 531.934 556.335C527.77 571.256 521.47 585.5 513.229 598.627C504.79 611.988 494.67 624.215 483.116 635.011C471.356 645.985 458.495 655.722 444.735 664.066C459.576 657.3 473.675 649.018 486.805 639.353C500.093 629.528 512.058 618.038 522.403 605.164C543.849 578.524 556.921 546.153 559.976 512.122C563.018 477.724 555.736 442.421 540.656 410.928C525.575 379.435 503.035 351.461 476.401 328.604L448.99 364.342Z" fill="#F4711E"/>
<path d="M490.916 401.84L500.56 403.616L502.712 413.753L504.864 403.616L514.508 401.824L504.896 399.483L502.712 389.911L500.511 399.483L490.916 401.84Z" fill="#FFF7ED"/>
<path d="M526.4 591.718L531.789 592.719L532.986 598.385L534.2 592.719L539.588 591.718L534.216 590.411L532.986 585.068L531.756 590.411L526.4 591.718Z" fill="#FFF7ED"/>
<path d="M529.297 542.534L534.685 543.518L535.883 549.2L537.08 543.518L542.484 542.534L537.112 541.226L535.883 535.867L534.653 541.226L529.297 542.534Z" fill="#FFF7ED"/>
<path d="M498.035 370.218L503.423 371.219L504.637 376.884L505.834 371.219L511.223 370.218L505.851 368.91L504.637 363.567L503.407 368.91L498.035 370.218Z" fill="#FFF7ED"/>
<path d="M513.65 603.986C513.993 604.079 514.295 604.282 514.511 604.563C514.727 604.845 514.844 605.189 514.844 605.544C514.844 605.898 514.727 606.243 514.511 606.524C514.295 606.806 513.993 607.009 513.65 607.101C513.307 607.009 513.005 606.806 512.789 606.524C512.573 606.243 512.456 605.898 512.456 605.544C512.456 605.189 512.573 604.845 512.789 604.563C513.005 604.282 513.307 604.079 513.65 603.986Z" fill="#FFF7ED"/>
<path d="M469.054 362.631C469.397 362.724 469.7 362.927 469.915 363.209C470.131 363.49 470.248 363.835 470.248 364.189C470.248 364.543 470.131 364.888 469.915 365.169C469.7 365.451 469.397 365.654 469.054 365.747C468.711 365.654 468.409 365.451 468.193 365.169C467.977 364.888 467.861 364.543 467.861 364.189C467.861 363.835 467.977 363.49 468.193 363.209C468.409 362.927 468.711 362.724 469.054 362.631Z" fill="#FFF7ED"/>
<path d="M553.164 501.63C553.506 501.723 553.809 501.926 554.025 502.207C554.241 502.489 554.357 502.833 554.357 503.188C554.357 503.542 554.241 503.886 554.025 504.168C553.809 504.449 553.506 504.652 553.164 504.745C552.821 504.652 552.518 504.449 552.303 504.168C552.087 503.886 551.97 503.542 551.97 503.188C551.97 502.833 552.087 502.489 552.303 502.207C552.518 501.926 552.821 501.723 553.164 501.63Z" fill="#FFF7ED"/>
<path d="M516.432 595.867C516.703 595.899 516.952 596.03 517.133 596.234C517.314 596.437 517.414 596.7 517.414 596.972C517.414 597.245 517.314 597.507 517.133 597.711C516.952 597.915 516.703 598.045 516.432 598.078C516.161 598.045 515.911 597.915 515.73 597.711C515.549 597.507 515.449 597.245 515.449 596.972C515.449 596.7 515.549 596.437 515.73 596.234C515.911 596.03 516.161 595.899 516.432 595.867Z" fill="#FFF7ED"/>
<path d="M553.73 447.167C554.022 447.167 554.301 447.282 554.508 447.488C554.714 447.694 554.83 447.973 554.83 448.264C554.83 448.556 554.714 448.835 554.508 449.041C554.301 449.246 554.022 449.362 553.73 449.362C553.438 449.362 553.158 449.246 552.952 449.041C552.745 448.835 552.629 448.556 552.629 448.264C552.629 447.973 552.745 447.694 552.952 447.488C553.158 447.282 553.438 447.167 553.73 447.167Z" fill="#FFF7ED"/>
<path d="M542.484 559.935C543.242 559.99 543.951 560.33 544.469 560.885C544.986 561.441 545.273 562.171 545.273 562.929C545.273 563.687 544.986 564.417 544.469 564.973C543.951 565.528 543.242 565.868 542.484 565.923C541.726 565.868 541.017 565.528 540.5 564.973C539.983 564.417 539.695 563.687 539.695 562.929C539.695 562.171 539.983 561.441 540.5 560.885C541.017 560.33 541.726 559.99 542.484 559.935Z" fill="#FFF7ED"/>
<path d="M539.589 437.03C540.382 437.03 541.144 437.344 541.705 437.904C542.267 438.464 542.582 439.224 542.582 440.016C542.582 440.808 542.267 441.567 541.705 442.127C541.144 442.687 540.382 443.002 539.589 443.002C538.795 443.002 538.033 442.687 537.472 442.127C536.91 441.567 536.595 440.808 536.595 440.016C536.595 439.224 536.91 438.464 537.472 437.904C538.033 437.344 538.795 437.03 539.589 437.03Z" fill="#FFF7ED"/>
</g>
</svg>
