<svg xmlns="http://www.w3.org/2000/svg" width="21" height="20" viewBox="0 0 21 20" fill="none">
<g clip-path="url(#clip0_2885_3860)">
<path d="M10.5 2.5C12.4466 4.22215 14.9871 5.11881 17.5834 5C17.9614 6.28585 18.077 7.63456 17.9235 8.96598C17.7699 10.2974 17.3503 11.5844 16.6895 12.7504C16.0288 13.9165 15.1404 14.9378 14.0771 15.7537C13.0138 16.5696 11.7973 17.1635 10.5 17.5C9.2027 17.1635 7.98626 16.5696 6.92298 15.7537C5.8597 14.9378 4.97128 13.9165 4.31052 12.7504C3.64976 11.5844 3.23014 10.2974 3.07659 8.96598C2.92304 7.63456 3.0387 6.28585 3.41669 5C6.01296 5.11881 8.5535 4.22215 10.5 2.5" stroke="#EDFFE6" stroke-width="2" stroke-linecap="round" stroke-linejoin="round"/>
</g>
<defs>
<clipPath id="clip0_2885_3860">
<rect width="20" height="20" fill="white" transform="translate(0.5)"/>
</clipPath>
</defs>
</svg>